<?xml version="1.0" encoding="UTF-8" standalone="no"?>
<!-- Created with Inkscape (http://www.inkscape.org/) -->

<svg
   width="4.4808059in"
   height="4.0475821in"
   viewBox="0 0 89.616117 80.951643"
   version="1.1"
   id="svg5"
   inkscape:version="1.2.2 (b0a8486541, 2022-12-01)"
   xml:space="preserve"
   sodipodi:docname="duck-rabbit.svg"
   xmlns:inkscape="http://www.inkscape.org/namespaces/inkscape"
   xmlns:sodipodi="http://sodipodi.sourceforge.net/DTD/sodipodi-0.dtd"
   xmlns="http://www.w3.org/2000/svg"
   xmlns:svg="http://www.w3.org/2000/svg"><sodipodi:namedview
     id="namedview7"
     pagecolor="#ffffff"
     bordercolor="#000000"
     borderopacity="0.25"
     inkscape:showpageshadow="2"
     inkscape:pageopacity="0.0"
     inkscape:pagecheckerboard="0"
     inkscape:deskcolor="#d1d1d1"
     inkscape:document-units="in"
     showgrid="true"
     inkscape:zoom="0.81802549"
     inkscape:cx="105.1312"
     inkscape:cy="295.8343"
     inkscape:window-width="2256"
     inkscape:window-height="1445"
     inkscape:window-x="0"
     inkscape:window-y="0"
     inkscape:window-maximized="1"
     inkscape:current-layer="layer1"><inkscape:grid
       type="xygrid"
       id="grid9"
       units="in"
       spacingx="0.2"
       spacingy="0.2"
       originx="-58.250002"
       originy="90.215162" /></sodipodi:namedview><defs
     id="defs2" /><g
     inkscape:label="Layer 1"
     inkscape:groupmode="layer"
     id="layer1"
     transform="translate(-143.25,-49.784842)"><path
       style="fill:#000000;stroke-width:1"
       d="m 164.71576,130.3718 c -0.39695,-0.19502 -0.93602,-0.67313 -1.19791,-1.06247 -0.4424,-0.65767 -0.47618,-0.92549 -0.47618,-3.77483 0,-3.06693 0,-3.06693 0.7438,-3.18764 0.4091,-0.0664 0.9716,-0.0341 1.25,0.0717 0.49828,0.18945 0.5062,0.23267 0.5062,2.76196 0,1.80725 0.0821,2.68175 0.27666,2.94787 0.15505,0.21205 0.53711,0.37836 0.86917,0.37836 0.33206,0 0.71412,-0.16631 0.86917,-0.37836 0.19393,-0.26522 0.27666,-1.13272 0.27666,-2.90105 0,-1.6843 0.0831,-2.60576 0.25,-2.77268 0.1375,-0.1375 0.58282,-0.24856 0.98959,-0.24681 0.40677,0.002 0.86542,0.083 1.01922,0.18043 0.21943,0.13907 0.26429,0.86742 0.20834,3.38223 -0.0594,2.67022 -0.13421,3.29764 -0.44828,3.76024 -0.20734,0.30539 -0.7483,0.70383 -1.20214,0.88542 -0.45383,0.18159 -1.36232,0.32566 -2.01886,0.32016 -0.683,-0.006 -1.50248,-0.1617 -1.91544,-0.36458 z m 11.03573,0.0558 c -0.40023,-0.18076 -0.95059,-0.53455 -1.22303,-0.78619 -0.27244,-0.25164 -0.67155,-0.86374 -0.8869,-1.36022 -0.21536,-0.49648 -0.3895,-1.34023 -0.38698,-1.87501 0.002,-0.53477 0.17819,-1.34731 0.39039,-1.80564 0.2122,-0.45833 0.65546,-1.07619 0.98501,-1.37303 0.32955,-0.29683 0.90366,-0.65967 1.27579,-0.80632 0.39808,-0.15688 1.18413,-0.22992 1.90955,-0.17745 0.67813,0.049 1.38147,0.21244 1.56298,0.36308 0.2176,0.18059 0.33003,0.6159 0.33003,1.27777 0,0.55212 -0.0936,1.0617 -0.20797,1.13239 -0.11438,0.0707 -0.41649,-0.0175 -0.67135,-0.19604 -0.25486,-0.17851 -0.77682,-0.32457 -1.1599,-0.32457 -0.38307,0 -0.86798,0.0918 -1.07756,0.20394 -0.20958,0.11216 -0.48467,0.50115 -0.6113,0.86442 -0.12664,0.36327 -0.23025,0.84296 -0.23025,1.06599 0,0.22302 0.19138,0.67427 0.42528,1.00275 0.26971,0.37877 0.68921,0.64677 1.14676,0.73261 0.50076,0.0939 0.87827,0.0326 1.23405,-0.20051 0.28192,-0.18473 0.65651,-0.33586 0.83241,-0.33586 0.2479,0 0.31983,0.25196 0.31983,1.12032 0,0.73844 -0.10583,1.20816 -0.31047,1.378 -0.17076,0.14172 -0.89732,0.29604 -1.61458,0.34294 -0.89894,0.0588 -1.5302,-0.0168 -2.03179,-0.24337 z m -23.02492,-0.13371 c -0.0612,-0.15955 -0.0857,-2.02145 -0.0544,-4.13755 0.057,-3.84747 0.057,-3.84747 2.28649,-3.81653 1.91481,0.0266 2.35481,0.10008 3.11694,0.52083 0.48807,0.26944 1.09725,0.80146 1.35374,1.18224 0.25648,0.3808 0.52744,1.09982 0.60212,1.59784 0.0747,0.49801 0.0715,1.28583 -0.007,1.75072 -0.0785,0.46488 -0.34587,1.14395 -0.59406,1.50904 -0.24819,0.3651 -0.82626,0.85817 -1.28459,1.09571 -0.65134,0.33757 -1.32196,0.44892 -3.07064,0.50984 -1.77321,0.0618 -2.2604,0.0178 -2.34863,-0.21214 z m 4.1507,-2.3265 c 0.52645,-0.42125 0.6044,-0.61968 0.59103,-1.50456 -0.0127,-0.83909 -0.11511,-1.10507 -0.57927,-1.50432 -0.35366,-0.3042 -0.76814,-0.46133 -1.11186,-0.42149 -0.53326,0.0618 -0.54979,0.10751 -0.6145,1.69861 -0.0366,0.89931 -0.0161,1.7665 0.0456,1.92709 0.0616,0.1606 0.32592,0.29152 0.58733,0.29095 0.26141,-6.2e-4 0.74819,-0.21939 1.08172,-0.48628 z m 26.09135,2.41268 c -0.0607,-0.0982 -0.1627,-0.64183 -0.22674,-1.20816 -0.0641,-0.56634 -0.0462,-2.3422 0.0396,-3.94637 0.15603,-2.91667 0.15603,-2.91667 1.11178,-2.97878 0.60905,-0.0396 1.03934,0.0386 1.18618,0.21554 0.12674,0.15271 0.25916,0.82224 0.29426,1.48785 0.0638,1.21019 0.0638,1.21019 0.79283,0.20112 0.40096,-0.55499 0.79201,-1.16132 0.869,-1.34742 0.10118,-0.24455 0.50552,-0.36656 1.45849,-0.4401 0.72517,-0.056 1.38906,-0.0621 1.47531,-0.0136 0.0863,0.0485 0.0475,0.29341 -0.0861,0.54427 -0.13357,0.25085 -0.69633,1.05602 -1.25056,1.78925 -0.55424,0.73324 -1.00771,1.44582 -1.00771,1.58352 0,0.1377 0.49219,0.88545 1.09375,1.66167 0.60156,0.77622 1.22748,1.59476 1.39092,1.81898 0.25733,0.35302 0.25733,0.43288 0,0.59573 -0.16344,0.10344 -0.78802,0.18951 -1.38794,0.19126 -1.09077,0.003 -1.09077,0.003 -2.1875,-1.46506 -1.09673,-1.46826 -1.09673,-1.46826 -1.2009,-0.0521 -0.10416,1.41618 -0.10416,1.41618 -1.17929,1.4785 -0.59132,0.0343 -1.12476,-0.018 -1.18542,-0.11613 z m 2.15638,-3.6962 c 0,-0.0573 -0.0469,-0.10416 -0.10417,-0.10416 -0.0573,0 -0.10416,0.0469 -0.10416,0.10416 0,0.0573 0.0469,0.10417 0.10416,0.10417 0.0573,0 0.10417,-0.0469 0.10417,-0.10417 z m 37.83525,-3.1717 c -0.0698,-0.0698 -0.12692,-0.67378 -0.12692,-1.34219 0,-1.21527 0,-1.21527 -34.90237,-1.21527 C 160.20092,120.95471 160,120.8 152.92928,120.69429 152.8,115.6 152.80729,106.512 152.77957,89.496371 152.72917,58.55887 152.72917,58.55887 151.53125,58.49639 c -0.83937,-0.04378 -1.19792,-0.14713 -1.19792,-0.3453 0,-0.155551 0.7078,-2.04929 1.57288,-4.208308 0.86507,-2.159019 1.65847,-4.011087 1.76309,-4.115708 0.11474,-0.114739 0.26935,0.0092 0.38963,0.312454 0.10967,0.276471 0.82644,2.002675 1.59282,3.836008 0.76638,1.833334 1.44077,3.591146 1.49864,3.906251 0.10524,0.572916 0.10524,0.572916 -1.16841,0.572916 -1.27365,0 -1.27365,0 -1.27365,30.312501 C 154.70833,103.02898 154.8,105 154.8,119 c 16,0 15.93444,0.0797 33.97083,0.0797 34.0625,0 34.0625,0 34.0625,-1.15238 0,-0.80731 0.0892,-1.18662 0.29805,-1.26674 0.16393,-0.0629 2.29674,0.5982 4.73958,1.46913 2.44285,0.87092 4.58217,1.63476 4.75404,1.69742 0.27778,0.10126 0.27778,0.1331 0,0.28657 -0.17187,0.095 -1.53125,0.61507 -3.02083,1.1558 -1.48959,0.54072 -3.56529,1.29509 -4.61267,1.67635 -1.04739,0.38128 -1.96145,0.63612 -2.03125,0.56631 z m -73.52969,-8.32134 c -0.0764,-0.0764 -0.13889,-0.44882 -0.13889,-0.82762 0,-0.68872 0,-0.68872 -2.96875,-0.74652 -2.96875,-0.0578 -2.96875,-0.0578 -2.96875,-1.20364 0,-1.14583 0,-1.14583 2.91666,-1.25 2.91667,-0.10417 2.91667,-0.10417 2.9857,-0.83151 0.038,-0.40005 0.1786,-0.79705 0.3125,-0.88223 0.13391,-0.0852 0.54486,-0.15632 0.91322,-0.15807 0.45118,-0.002 0.74014,0.12832 0.88542,0.39978 0.11862,0.22163 0.21438,1.37007 0.21282,2.55208 -0.002,1.18202 -0.0594,2.36005 -0.12847,2.61787 -0.10508,0.39213 -0.26919,0.46875 -1.0041,0.46875 -0.48316,0 -0.94097,-0.0625 -1.01736,-0.13889 z m 19.86111,-1.6781 c -0.17188,-0.0646 -0.55682,-0.28833 -0.85543,-0.49722 -0.52718,-0.36878 -0.56622,-0.36792 -1.34613,0.0297 -0.44177,0.22522 -1.06023,0.4095 -1.37436,0.4095 -0.31413,0 -0.78821,-0.0989 -1.05351,-0.21978 -0.26531,-0.12088 -0.68664,-0.51932 -0.9363,-0.88542 -0.24966,-0.3661 -0.55932,-1.13438 -0.68814,-1.7073 -0.12881,-0.57292 -0.21015,-2.21354 -0.18076,-3.64583 0.0532,-2.59445 0.051,-2.60845 -0.61346,-3.75 -0.3668,-0.63021 -0.85697,-1.76194 -1.08925,-2.51494 -0.27397,-0.888102 -0.43748,-2.059196 -0.46542,-3.333336 -0.0431,-1.964229 -0.0431,-1.964229 -0.90571,-2.237285 -0.76667,-0.242675 -0.92426,-0.41035 -1.41643,-1.507071 -0.30459,-0.678706 -0.68821,-1.868332 -0.8525,-2.643611 -0.16711,-0.788591 -0.30029,-2.563646 -0.30232,-4.029133 -0.002,-1.476354 0.14296,-3.476552 0.33226,-4.583334 0.18474,-1.080087 0.56551,-2.760671 0.84617,-3.734629 0.28065,-0.973958 0.82605,-2.333333 1.212,-3.020833 0.38594,-0.6875 1.15361,-1.687559 1.70592,-2.222352 0.55231,-0.534794 1.41692,-1.184515 1.92135,-1.443825 0.50443,-0.259311 1.41446,-0.512713 2.02228,-0.563119 0.90993,-0.07546 1.2631,0.0012 1.99952,0.433881 0.49191,0.28904 1.08916,0.792502 1.32723,1.118804 0.23807,0.326302 0.5532,0.921402 0.70028,1.322444 0.1471,0.401042 0.32732,1.572917 0.40049,2.604167 0.13305,1.875 0.13305,1.875 3.57055,2.219541 1.89063,0.189498 4.51563,0.455075 5.83333,0.590169 1.31771,0.135096 3.51804,0.37849 4.88962,0.540875 1.37157,0.162388 2.85751,0.295248 3.30208,0.295248 0.64147,0 0.9545,-0.1462 1.51664,-0.708333 0.42537,-0.425375 0.70833,-0.915075 0.70833,-1.225875 0,-0.28465 0.38514,-1.287025 0.85586,-2.227502 0.62524,-1.249186 1.25856,-2.111796 2.35029,-3.201207 0.9321,-0.930125 1.95886,-1.71715 2.72872,-2.091602 0.78984,-0.384173 1.69874,-0.637633 2.52411,-0.703885 0.9513,-0.07636 1.66452,0.0111 2.7175,0.33325 0.78523,0.240233 2.03601,0.791356 2.77952,1.224721 0.81199,0.473279 2.27426,1.703091 3.66171,3.0796 1.27044,1.260416 2.70121,2.81585 3.17949,3.456519 0.8696,1.164852 0.8696,1.164852 4.98412,1.303652 2.26298,0.07634 5.05201,0.27402 6.19785,0.439285 1.14583,0.165267 2.90723,0.540192 3.91423,0.833165 1.007,0.292975 2.46012,0.851654 3.22917,1.241508 0.76904,0.389854 1.77625,1.035273 2.23823,1.434265 0.46199,0.398991 1.10601,1.214243 1.43118,1.811673 0.49028,0.900814 0.58803,1.322539 0.57265,2.470583 -0.0102,0.761392 -0.11315,1.704808 -0.22877,2.096481 -0.11561,0.391671 -0.44358,1.064771 -0.7288,1.495775 -0.28523,0.431005 -0.92783,1.065211 -1.42802,1.409346 -0.50018,0.344136 -1.4646,0.812727 -2.14315,1.041315 -0.67856,0.228587 -1.88953,0.529833 -2.69106,0.669433 -0.99245,0.172852 -2.62033,0.212721 -5.10316,0.124981 -2.00521,-0.07086 -4.61811,-0.277762 -5.80645,-0.459781 -1.18833,-0.182019 -2.27806,-0.285873 -2.42161,-0.230787 -0.14355,0.05509 -0.32521,0.459202 -0.40369,0.898037 -0.0785,0.438836 -0.325,1.294407 -0.54782,1.901265 -0.22282,0.60686 -0.60561,1.497485 -0.85064,1.979167 -0.24503,0.481683 -0.84453,1.3953 -1.33223,2.03026 -0.4877,0.63496 -1.25681,1.48882 -1.70913,1.89747 -0.45232,0.40864 -1.37594,1.11833 -2.0525,1.5771 -0.67655,0.45876 -1.72793,1.0859 -2.33639,1.39364 -0.60846,0.30775 -1.82721,0.82444 -2.70833,1.14821 -0.88113,0.32377 -2.39892,0.78287 -3.37288,1.02022 -0.97396,0.23735 -2.69578,0.5793 -3.82626,0.75988 -1.13049,0.18059 -3.42736,0.40727 -5.10417,0.50373 -1.6768,0.0965 -3.37686,0.17539 -3.7779,0.17539 -0.40105,0 -2.13542,-0.08 -3.85417,-0.17786 -1.71875,-0.0978 -3.66406,-0.23764 -4.32292,-0.31072 -1.19402,-0.13242 -1.19791,-0.13103 -1.19791,0.4268 0,0.30781 -0.10291,0.96832 -0.22867,1.46779 -0.12577,0.49947 -0.42061,1.11415 -0.65519,1.36595 -0.35173,0.37753 -0.58712,0.43971 -1.34243,0.35457 -0.80261,-0.0905 -0.99017,-0.029 -1.51628,0.49714 -0.338,0.338 -0.81224,0.59319 -1.08516,0.58393 -0.26662,-0.009 -0.6254,-0.0693 -0.79727,-0.13387 z m -3.05922,-2.16635 c 0.25028,-0.12833 0.76249,-0.52438 1.13824,-0.88012 0.68319,-0.64678 0.68319,-0.64678 1.49255,0.28542 0.59001,0.67956 0.87285,0.87073 1.04362,0.70539 0.12884,-0.12474 0.25407,-0.90678 0.27828,-1.73786 0.044,-1.51104 0.044,-1.51104 -1.52707,-1.96834 -0.86411,-0.25152 -2.11838,-0.76617 -2.78728,-1.14367 -1.21619,-0.68637 -1.21619,-0.68637 -1.12343,1.67432 0.051,1.29838 0.20703,2.57163 0.34669,2.82945 0.13967,0.25781 0.35056,0.46875 0.46864,0.46875 0.11809,0 0.41948,-0.105 0.66976,-0.23334 z m 6.78845,-2.29686 c 0.0187,-0.49507 -0.0639,-0.55911 -0.81257,-0.63051 -0.45833,-0.0437 -0.83333,-0.003 -0.83333,0.0896 0,0.093 0.1582,0.4236 0.35156,0.73467 0.19336,0.31107 0.49724,0.7386 0.67529,0.95006 0.31119,0.36958 0.32905,0.36554 0.46101,-0.10416 0.0755,-0.26876 0.14662,-0.73661 0.15804,-1.03968 z m 19.6041,-2.15078 c 1.20312,-0.18995 3.125,-0.58087 4.27083,-0.8687 1.14584,-0.28784 2.92709,-0.87629 3.95834,-1.30767 1.03125,-0.43138 2.42786,-1.13916 3.10358,-1.57284 0.67571,-0.43368 1.76396,-1.31587 2.41831,-1.96042 0.65436,-0.64454 1.4721,-1.593771 1.8172,-2.109396 0.3451,-0.515625 0.82554,-1.40625 1.06765,-1.979166 0.2421,-0.572917 0.58105,-1.651042 0.75322,-2.395834 0.17218,-0.744791 0.31443,-1.661796 0.31612,-2.037787 0.002,-0.375994 0.12795,-0.731538 0.28056,-0.790102 0.15262,-0.05856 1.34793,0.08939 2.65625,0.328783 1.30833,0.239396 2.98815,0.50119 3.73294,0.581769 0.74479,0.08058 2.85417,0.146504 4.6875,0.146504 2.05489,0 3.82551,-0.109265 4.6166,-0.284892 0.7058,-0.156689 1.78171,-0.533946 2.39091,-0.83835 0.63148,-0.315531 1.31128,-0.855623 1.58132,-1.256335 0.26052,-0.386582 0.47335,-0.759323 0.47295,-0.828315 -4.1e-4,-0.06899 -1.14883,-0.136806 -2.55208,-0.150698 -1.40325,-0.0139 -3.58262,-0.138548 -4.84303,-0.277016 -1.26042,-0.138469 -3.65105,-0.432088 -5.3125,-0.652488 -1.66146,-0.220402 -3.33483,-0.4533 -3.71861,-0.517556 -0.67743,-0.113421 -0.69366,-0.139207 -0.5567,-0.884754 0.0776,-0.422361 0.20594,-0.835415 0.28524,-0.917898 0.0793,-0.08248 1.31418,0.03044 2.7442,0.250941 1.43002,0.2205 3.99497,0.5458 5.69989,0.722886 1.70491,0.177085 4.30648,0.321975 5.78125,0.321975 2.28276,0 2.68139,-0.048 2.68139,-0.322846 0,-0.177565 -0.13917,-0.591971 -0.30926,-0.920904 -0.1701,-0.328932 -0.70916,-0.922346 -1.19792,-1.3187 -0.48876,-0.396352 -1.2803,-0.917892 -1.75899,-1.158973 -0.47869,-0.241084 -1.66724,-0.669265 -2.64123,-0.951515 -0.97399,-0.28225 -2.73858,-0.662508 -3.92132,-0.845019 -1.18275,-0.18251 -4.142,-0.389266 -6.57613,-0.459458 -4.42569,-0.127621 -4.42569,-0.127621 -5.60441,-1.710519 -0.6483,-0.870596 -2.12549,-2.527733 -3.28265,-3.682529 -1.767,-1.763398 -2.40166,-2.247148 -3.96321,-3.020834 -1.64085,-0.81297 -2.02025,-0.920297 -3.22917,-0.913497 -1.02381,0.0058 -1.60671,0.131685 -2.30737,0.49847 -0.51563,0.269921 -1.50226,1.065965 -2.19252,1.768984 -0.69026,0.703019 -1.50977,1.798908 -1.82113,2.43531 -0.31137,0.636402 -0.62718,1.477519 -0.70182,1.869146 -0.0746,0.391627 -0.25815,0.955946 -0.40781,1.254042 -0.14966,0.298094 -0.59698,0.827233 -0.99405,1.175862 -0.39706,0.34863 -1.07347,0.749888 -1.50313,0.891688 -0.50233,0.165785 -1.34534,0.214367 -2.36161,0.136096 -0.86924,-0.06694 -5.04918,-0.500511 -9.28877,-0.963479 -4.23958,-0.462969 -8.11541,-0.90123 -8.61296,-0.973913 -0.8478,-0.12385 -0.89672,-0.166479 -0.77875,-0.678531 0.0692,-0.300511 0.18502,-1.272944 0.25731,-2.160965 0.0885,-1.086881 0.0588,-1.614583 -0.0908,-1.614583 -0.12221,0 -0.30024,0.492187 -0.39561,1.09375 -0.1444,0.910846 -0.25157,1.104883 -0.64089,1.160323 -0.36572,0.05208 -0.46749,-0.03554 -0.46749,-0.402479 0,-0.25798 0.19986,-1.209732 0.44413,-2.115007 0.39938,-1.480144 0.41189,-1.678187 0.12416,-1.965921 -0.17599,-0.175983 -0.4058,-0.266923 -0.5107,-0.202091 -0.1049,0.06483 -0.36551,0.849364 -0.57913,1.743402 -0.21362,0.894037 -0.50279,1.753804 -0.6426,1.910589 -0.13982,0.156788 -0.35696,0.221569 -0.48253,0.143957 -0.12558,-0.07761 -0.22833,-0.348548 -0.22833,-0.602077 0,-0.25353 0.18104,-1.113836 0.4023,-1.911792 0.22127,-0.797954 0.3749,-1.478236 0.3414,-1.511736 -0.0335,-0.0335 -0.29231,0.02707 -0.57513,0.134594 -0.42867,0.162983 -0.57615,0.458529 -0.88657,1.776663 -0.31212,1.325375 -0.44052,1.581158 -0.7937,1.581158 -0.38317,0 -0.41016,-0.09437 -0.29797,-1.041667 0.0678,-0.572916 0.0834,-1.041666 0.0345,-1.041666 -0.0488,0 -0.41943,0.490935 -0.82352,1.090968 -0.40408,0.600034 -0.7347,1.162534 -0.7347,1.25 0,0.08747 0.25165,0.159032 0.55923,0.159032 0.30757,0 0.9555,0.191833 1.43984,0.426298 0.48433,0.234464 1.33641,0.874966 1.8935,1.423337 0.55709,0.548371 1.42461,1.6456 1.92782,2.438286 0.50321,0.792685 1.03833,1.646173 1.18916,1.896637 0.19738,0.327786 0.55262,0.490311 1.26775,0.58 0.54645,0.06853 2.01282,0.355669 3.25861,0.638079 1.48743,0.337188 2.98945,0.861288 4.375,1.526569 1.16046,0.557204 2.85993,1.571369 3.77659,2.253702 0.91667,0.682332 2.12687,1.75 2.68934,2.372598 0.56248,0.622596 1.38279,1.685592 1.82292,2.362211 0.44013,0.676619 0.80024,1.399919 0.80024,1.607333 0,0.207415 -0.28235,0.698698 -0.62745,1.091742 -0.34509,0.393042 -1.04962,0.913069 -1.56561,1.155612 -0.51599,0.242544 -1.6239,0.536367 -2.46203,0.65294 -1.16324,0.161792 -2.18553,0.136463 -4.31981,-0.107035 -1.53776,-0.175442 -3.26468,-0.371042 -3.8376,-0.434667 -0.57291,-0.06363 -2.49479,-0.302073 -4.27083,-0.529885 -1.77604,-0.227813 -3.87596,-0.505373 -4.66649,-0.616803 -0.79052,-0.111427 -1.48594,-0.153968 -1.54538,-0.09453 -0.0594,0.05943 -0.1478,0.60014 -0.19637,1.201571 -0.0486,0.601429 0.0613,1.733671 0.24409,2.516092 0.18282,0.782419 0.57057,1.828999 0.86167,2.325729 0.29111,0.49673 0.9536,1.29427 1.47221,1.77231 0.51861,0.47804 1.52227,1.13992 2.23035,1.47085 0.70808,0.33092 1.99054,0.73653 2.84992,0.90135 0.85937,0.16481 2.6875,0.45239 4.0625,0.63906 1.375,0.18667 3.20312,0.41985 4.0625,0.51817 0.85937,0.0983 3.95312,0.1502 6.875,0.1153 3.64246,-0.0435 6.00016,-0.17203 7.5,-0.40883 z m 8.96248,-24.214368 c -0.39875,-0.206521 -0.93781,-0.694044 -1.19791,-1.083383 -0.26354,-0.394496 -0.4729,-1.026188 -0.4729,-1.426848 0,-0.395427 0.1506,-1.036336 0.33468,-1.424242 0.18407,-0.387906 0.64045,-0.894262 1.01417,-1.125235 0.42735,-0.264117 1.04057,-0.41995 1.65255,-0.41995 0.83961,0 1.08994,0.109016 1.82522,0.794879 0.73003,0.680973 0.86489,0.9422 0.94103,1.822917 0.0674,0.780214 -0.012,1.188529 -0.32944,1.693802 -0.23008,0.366169 -0.6536,0.819923 -0.94116,1.008341 -0.28757,0.188419 -0.87798,0.385923 -1.31203,0.438896 -0.51542,0.0629 -1.04071,-0.03395 -1.51421,-0.279177 z m 1.87085,-1.937991 c 0.22917,-0.229167 0.41667,-0.489557 0.41667,-0.578644 0,-0.08909 -0.14594,-0.37034 -0.32431,-0.625 -0.17838,-0.254663 -0.47568,-0.463023 -0.66068,-0.463023 -0.185,0 -0.50781,0.155154 -0.71736,0.344789 -0.20954,0.189634 -0.38098,0.512442 -0.38098,0.717352 0,0.204911 0.20836,0.518507 0.46302,0.69688 0.25466,0.178371 0.53591,0.324312 0.625,0.324312 0.0891,0 0.34948,-0.1875 0.57864,-0.416666 z m -21.27735,14.799031 c 0.45168,-0.121625 1.03392,-0.39335 1.29386,-0.603833 0.47261,-0.382698 0.47261,-0.382698 -0.48794,-1.631002 -0.5283,-0.686569 -1.48295,-1.725746 -2.12143,-2.309286 -0.63849,-0.583537 -1.83973,-1.483187 -2.66943,-1.999223 -0.82969,-0.516033 -2.22124,-1.222875 -3.09232,-1.570756 -0.87108,-0.347883 -2.13671,-0.778788 -2.8125,-0.957567 -0.6758,-0.178779 -2.11987,-0.381464 -3.20904,-0.45041 -1.98033,-0.125359 -1.98033,-0.125359 -2.69481,-1.561811 -0.39296,-0.79005 -0.82686,-1.529725 -0.96422,-1.643721 -0.18391,-0.152635 -0.28651,9e-5 -0.38922,0.579405 -0.0767,0.432671 -0.18767,0.950735 -0.24658,1.151256 -0.0589,0.200521 -0.28828,0.364583 -0.50972,0.364583 -0.28073,0 -0.40263,-0.144433 -0.40263,-0.477062 0,-0.262386 0.14002,-1.014629 0.31115,-1.671654 0.25001,-0.959838 0.26063,-1.27549 0.054,-1.606271 -0.1414,-0.226423 -0.31788,-0.411679 -0.39218,-0.411679 -0.0743,0 -0.28405,0.585937 -0.46612,1.302083 -0.18206,0.716146 -0.3575,1.489583 -0.38984,1.71875 -0.0352,0.249448 -0.24646,0.443433 -0.52637,0.483362 -0.27031,0.03856 -0.51756,-0.06362 -0.58609,-0.242206 -0.0652,-0.169896 0.11533,-1.184283 0.40117,-2.254196 0.31837,-1.191666 0.44536,-2.021969 0.3278,-2.14321 -0.12095,-0.124738 -0.27528,-0.11454 -0.4174,0.02758 -0.12402,0.124023 -0.40877,1.048008 -0.63277,2.053302 -0.224,1.005292 -0.45619,1.906944 -0.51597,2.003669 -0.0598,0.09673 -0.29066,0.175867 -0.51306,0.175867 -0.32877,0 -0.40437,-0.14685 -0.40437,-0.785438 0,-0.43199 0.1875,-1.462054 0.41667,-2.289029 0.22916,-0.826975 0.41666,-1.551654 0.41666,-1.610396 0,-0.05874 -0.13733,-0.106804 -0.30517,-0.106804 -0.16784,0 -0.38993,0.164062 -0.49353,0.364583 -0.10361,0.200521 -0.36472,1.208334 -0.58025,2.239584 -0.29482,1.410614 -0.38994,2.72637 -0.38406,5.3125 0.007,3.10731 0.0571,3.577581 0.52084,4.895833 0.51301,1.458334 0.51301,1.458334 1.76301,1.71275 0.6875,0.139929 3.96875,0.587663 7.29166,0.994965 3.32292,0.4073 6.60417,0.814302 7.29167,0.90445 0.6875,0.09015 2.16063,0.186017 3.27362,0.213039 1.11299,0.02702 2.39318,-0.05038 2.84486,-0.172006 z m -38.67655,10.788728 c -0.13994,-0.13993 -0.25443,-0.64607 -0.25443,-1.12475 0,-0.47868 0.11719,-0.96648 0.26042,-1.08401 0.17071,-0.14009 1.58799,-0.16681 4.11458,-0.0776 3.85417,0.13609 3.85417,0.13609 3.85417,1.28193 0,1.14583 0,1.14583 -3.86016,1.20234 -2.8267,0.0414 -3.92827,-0.0116 -4.11458,-0.19792 z m 0.71618,-5.80727 c -0.29915,-0.23531 -0.64566,-0.774374 -0.77001,-1.197916 -0.12435,-0.42354 -0.19692,-1.660698 -0.16127,-2.74924 0.0648,-1.979166 0.0648,-1.979166 4.12734,-1.979166 4.0625,0 4.0625,0 4.12645,1.122148 0.0352,0.617181 -0.0309,1.73167 -0.14692,2.476641 -0.13664,0.877679 -0.36779,1.521521 -0.65662,1.828973 -0.24517,0.26097 -0.68199,0.53377 -0.97071,0.60624 -0.33017,0.0829 -0.82231,-0.0154 -1.32638,-0.26476 -0.80143,-0.396524 -0.80143,-0.396524 -1.26244,0.0942 -0.35713,0.38014 -0.68122,0.49072 -1.43827,0.49072 -0.67031,0 -1.14809,-0.13438 -1.52117,-0.42784 z m 2.25856,-2.905489 c 0,-0.580623 -0.0886,-0.741825 -0.4349,-0.791304 -0.23919,-0.03417 -0.5459,0.07161 -0.68156,0.235077 -0.17744,0.213802 -0.18685,0.454544 -0.0335,0.857831 0.15845,0.416763 0.33334,0.543548 0.68156,0.494092 0.38377,-0.05451 0.46841,-0.198294 0.46841,-0.795696 z m 2.98195,-0.157956 c 0.0583,-0.602944 0.008,-0.675377 -0.46875,-0.675377 -0.4475,0 -0.53404,0.09565 -0.53404,0.590277 0,0.324654 0.0657,0.656019 0.1461,0.736369 0.0803,0.08035 0.29128,0.118645 0.46875,0.0851 0.19469,-0.03681 0.34854,-0.328834 0.38794,-0.736369 z m -4.64862,-6.082467 c -0.22917,-0.09479 -0.65104,-0.424254 -0.9375,-0.732142 -0.4812,-0.517196 -0.52613,-0.739625 -0.59043,-2.922746 -0.0651,-2.210596 -0.0419,-2.377766 0.3599,-2.59281 0.27936,-0.149506 1.7239,-0.209971 4.1321,-0.172956 3.7026,0.05691 3.7026,0.05691 3.6677,2.21186 -0.0192,1.185221 -0.14586,2.42284 -0.28149,2.750261 -0.13562,0.32742 -0.46818,0.740506 -0.73902,0.917966 -0.27084,0.177461 -0.75612,0.322656 -1.07841,0.322656 -0.32228,0 -0.78843,-0.141806 -1.03587,-0.315125 -0.41322,-0.289425 -0.51281,-0.272435 -1.22127,0.208334 -0.42424,0.287902 -1.01608,0.517516 -1.3152,0.510252 -0.29911,-0.0073 -0.73134,-0.09076 -0.96051,-0.18555 z m 1.52083,-2.551244 c 0.1375,-0.1375 0.25,-0.51844 0.25,-0.846533 0,-0.547515 -0.0556,-0.591169 -0.67708,-0.53125 -0.5837,0.05628 -0.66956,0.137118 -0.62252,0.586116 0.03,0.286459 0.0974,0.638021 0.14971,0.78125 0.0523,0.14323 0.21997,0.260417 0.37252,0.260417 0.15256,0 0.38987,-0.1125 0.52737,-0.25 z m 3.16898,-0.58764 c 0.12391,-0.231533 0.16855,-0.512783 0.0992,-0.625 -0.0693,-0.112214 -0.34713,-0.204027 -0.61728,-0.204027 -0.27014,0 -0.5306,0.117188 -0.57879,0.260417 -0.0482,0.143229 -0.0451,0.424479 0.007,0.625 0.052,0.200521 0.26782,0.364583 0.47959,0.364583 0.21177,0 0.48642,-0.189437 0.61034,-0.420973 z m -6.16782,-6.53436 c -0.0609,-0.158765 -0.0814,-0.692369 -0.0455,-1.185786 0.0594,-0.817008 0.12569,-0.912687 0.74231,-1.071458 0.67366,-0.173456 0.67708,-0.180958 0.67708,-1.484948 0,-1.278621 -0.0165,-1.317887 -0.67708,-1.608627 -0.61405,-0.270271 -0.68311,-0.392848 -0.74177,-1.316663 -0.0356,-0.560256 0.0184,-1.101729 0.11993,-1.20327 0.10728,-0.107275 1.57453,0.307656 3.50219,0.990404 1.82466,0.646264 3.52564,1.221554 3.77995,1.278425 0.25431,0.05687 0.56369,0.225456 0.6875,0.374637 0.12557,0.151304 0.19747,0.854992 0.16261,1.591415 -0.0617,1.303719 -0.0716,1.323248 -0.79167,1.566685 -0.40104,0.13558 -2.10974,0.721561 -3.79712,1.302182 -1.68737,0.580618 -3.16687,1.055671 -3.28778,1.055671 -0.12091,0 -0.26969,-0.1299 -0.33061,-0.288667 z m 5.12384,-3.574109 c 0.38936,-0.203158 0.44195,-0.297481 0.20834,-0.373645 -0.17188,-0.05604 -0.63118,-0.20389 -1.02067,-0.328565 -0.3895,-0.124675 -0.78794,-0.226681 -0.88542,-0.226681 -0.0975,0 -0.17725,0.335573 -0.17725,0.745721 0,0.732258 0.0122,0.743093 0.67709,0.600327 0.37239,-0.07997 0.91146,-0.267686 1.19791,-0.417157 z m -5.08847,-7.57016 c -0.0622,-0.100615 -0.0982,-0.639677 -0.08,-1.197917 0.0182,-0.558239 0.12795,-1.139481 0.24393,-1.29165 0.11598,-0.152167 0.65544,-0.501948 1.1988,-0.777287 0.54336,-0.275342 1.03273,-0.572717 1.08748,-0.660832 0.0548,-0.08812 -0.47767,-0.160212 -1.18317,-0.160212 -1.28273,0 -1.28273,0 -1.34406,-0.833334 -0.0342,-0.465091 0.0578,-0.976212 0.20833,-1.156668 0.23054,-0.276421 0.82132,-0.311269 4.07175,-0.24018 3.80208,0.08316 3.80208,0.08316 3.84019,1.573334 0.021,0.8196 0.0198,1.771431 -0.002,2.115181 -0.0223,0.34375 -0.14643,0.887234 -0.27578,1.207742 -0.12936,0.320508 -0.49859,0.718946 -0.82051,0.885417 -0.32192,0.16647 -1.02421,0.302675 -1.56064,0.302675 -0.84889,0 -1.06649,-0.09666 -1.67857,-0.745655 -0.70324,-0.745654 -0.70324,-0.745654 -1.97233,0.208334 -0.69799,0.524693 -1.34801,0.953987 -1.44447,0.953987 -0.0965,0 -0.22628,-0.08232 -0.28846,-0.182935 z M 149.25,67.788047 c 0.1375,-0.1375 0.25,-0.465625 0.25,-0.729167 0,-0.420139 -0.10266,-0.479167 -0.83333,-0.479167 -0.73068,0 -0.83334,0.05903 -0.83334,0.479167 0,0.263542 0.1125,0.591667 0.25,0.729167 0.1375,0.1375 0.4,0.25 0.58334,0.25 0.18333,0 0.44583,-0.1125 0.58333,-0.25 z"
       id="path300"
       sodipodi:nodetypes="cssscssssssccssscccssscssscssssssssscssssssscsssssssssscssssccccccssssssssssssssccssccsssssssccsssssssssscsssssssssssssssscscssssssssssssssssscssssssssssssssssssssssssssssssssssssssssssssssssssscsssssscssssssssssssssssssssssssssssscsssssssssssssssssssssssssssssssssssssssssssssssssssssssscssssssssssssssssssssssssssssssssssssssssscsssssssssssssssssssssssssssssssssssssssssssssscsssssssssssssssssssscsscssssssssssssscssssssssssssscssssssssccsscsccccssssssssssssccssssssscssscssssccssssssccsssssss" /></g></svg>
