<?xml version="1.0" encoding="UTF-8" standalone="no"?>
<!-- Created with Inkscape (http://www.inkscape.org/) -->

<svg
   width="128.07098mm"
   height="58.747211mm"
   viewBox="0 0 128.07099 58.747211"
   version="1.1"
   id="svg5"
   inkscape:version="1.2.2 (b0a8486541, 2022-12-01)"
   sodipodi:docname="gestalt.svg"
   xmlns:inkscape="http://www.inkscape.org/namespaces/inkscape"
   xmlns:sodipodi="http://sodipodi.sourceforge.net/DTD/sodipodi-0.dtd"
   xmlns="http://www.w3.org/2000/svg"
   xmlns:svg="http://www.w3.org/2000/svg">
  <sodipodi:namedview
     id="namedview7"
     pagecolor="#ffffff"
     bordercolor="#666666"
     borderopacity="1.0"
     inkscape:pageshadow="2"
     inkscape:pageopacity="0.0"
     inkscape:pagecheckerboard="0"
     inkscape:document-units="mm"
     showgrid="false"
     inkscape:zoom="2.8284271"
     inkscape:cx="105.53569"
     inkscape:cy="-43.487067"
     inkscape:window-width="3790"
     inkscape:window-height="2111"
     inkscape:window-x="3840"
     inkscape:window-y="0"
     inkscape:window-maximized="1"
     inkscape:current-layer="layer1"
     inkscape:showpageshadow="2"
     inkscape:deskcolor="#d1d1d1" />
  <defs
     id="defs2">
    <marker
       style="overflow:visible"
       id="marker3311"
       refX="0"
       refY="0"
       orient="auto-start-reverse"
       inkscape:stockid="TriangleStart"
       markerWidth="1.73"
       markerHeight="2"
       viewBox="0 0 5.3244081 6.1553851"
       inkscape:isstock="true"
       inkscape:collect="always"
       preserveAspectRatio="xMidYMid">
      <path
         transform="scale(0.5)"
         style="fill:context-stroke;fill-rule:evenodd;stroke:context-stroke;stroke-width:1pt"
         d="M 5.77,0 -2.88,5 V -5 Z"
         id="path3309" />
    </marker>
    <marker
       style="overflow:visible"
       id="marker3265"
       refX="0"
       refY="0"
       orient="auto-start-reverse"
       inkscape:stockid="TriangleStart"
       markerWidth="1.73"
       markerHeight="2"
       viewBox="0 0 5.3244081 6.1553851"
       inkscape:isstock="true"
       inkscape:collect="always"
       preserveAspectRatio="xMidYMid">
      <path
         transform="scale(0.5)"
         style="fill:context-stroke;fill-rule:evenodd;stroke:context-stroke;stroke-width:1pt"
         d="M 5.77,0 -2.88,5 V -5 Z"
         id="path3263" />
    </marker>
    <marker
       style="overflow:visible"
       id="TriangleStart"
       refX="0"
       refY="0"
       orient="auto-start-reverse"
       inkscape:stockid="TriangleStart"
       markerWidth="1.73"
       markerHeight="2"
       viewBox="0 0 5.3244081 6.1553851"
       inkscape:isstock="true"
       inkscape:collect="always"
       preserveAspectRatio="xMidYMid">
      <path
         transform="scale(0.5)"
         style="fill:context-stroke;fill-rule:evenodd;stroke:context-stroke;stroke-width:1pt"
         d="M 5.77,0 -2.88,5 V -5 Z"
         id="path135" />
    </marker>
  </defs>
  <g
     inkscape:label="Layer 1"
     inkscape:groupmode="layer"
     id="layer1"
     transform="translate(-26.449591,-106.89897)">
    <g
       id="g4027">
      <g
         id="g4022">
        <text
           xml:space="preserve"
           style="font-style:normal;font-weight:normal;font-size:10.5833px;line-height:1.25;font-family:sans-serif;fill:#000000;fill-opacity:1;stroke:none;stroke-width:0.264583"
           x="34.081207"
           y="159.26855"
           id="text4018"><tspan
             sodipodi:role="line"
             id="tspan4016"
             style="stroke-width:0.264583"
             x="34.081207"
             y="159.26855" /></text>
      </g>
    </g>
    <g
       id="g1461">
      <g
         id="g38381">
        <path
           id="path33358"
           style="font-weight:bold;font-size:28.2223px;line-height:1.25;font-family:'Times New Roman';-inkscape-font-specification:'Times New Roman,  Bold';fill:#000000;stroke:#000000;stroke-width:0.999999"
           d="m 290.64811,479.22726 c 1.24856,0.44059 2.65352,1.04539 4.21489,1.81442 2.36111,1.1111 4.01042,1.66665 4.94793,1.66665 0.90278,0 1.61458,-0.27777 2.13542,-0.83331 0.52083,-0.55556 1.00695,-1.89238 1.45834,-4.01045 h 1.5625 v 0 l 0.57292,23.54173 h -2.13542 c -1.00695,-5.90279 -3.4896,-10.64238 -7.44794,-14.21877 -1.70568,-1.56983 -3.4737,-2.79844 -5.30406,-3.68583"
           transform="scale(0.26458333)" />
        <path
           id="path33372"
           style="font-weight:bold;font-size:28.2223px;line-height:1.25;font-family:'Times New Roman';-inkscape-font-specification:'Times New Roman,  Bold';fill:#000000;stroke:#000000;stroke-width:0.999999"
           d="m 279.06392,551.06577 c -1.95888,-0.45814 -4.40088,-1.29945 -7.32599,-2.52392 -1.66667,-0.69443 -3.0382,-1.04164 -4.11459,-1.04164 -0.90278,0 -1.85765,0.34721 -2.86459,1.04164 -1.00695,0.69445 -1.82292,1.75348 -2.44793,3.1771 h -1.92708 V 525.0522 h 1.92708 c 1.52779,7.50004 4.46182,13.22922 8.80211,17.18755 2.53795,2.27609 5.18689,3.89201 7.94684,4.84774"
           transform="scale(0.26458333)" />
        <path
           id="path33376"
           style="font-weight:bold;font-size:28.2223px;line-height:1.25;font-family:'Times New Roman';-inkscape-font-specification:'Times New Roman,  Bold';fill:#000000;stroke:#000000;stroke-width:0.999999"
           d="m 290.65405,547.26335 c 1.46481,-0.52859 2.74627,-1.30033 3.84436,-2.31523 2.3264,-2.11807 3.4896,-4.58336 3.4896,-7.39586 0,-1.66667 -0.45139,-3.28126 -1.35417,-4.84376 -0.86806,-1.56251 -2.20487,-3.03821 -4.01043,-4.42711 -0.53175,-0.41927 -1.18395,-0.87467 -1.95662,-1.3662 -1.85096,-1.1775 -4.39321,-2.56238 -7.62674,-4.15464 -1.41968,-0.69832 -2.75116,-1.37376 -3.99445,-2.02629 -4.38225,-2.30001 -7.66884,-4.31556 -9.85976,-6.04666 -2.8125,-2.22224 -4.98265,-4.70489 -6.51043,-7.44794 -1.49306,-2.74306 -2.23959,-5.76389 -2.23959,-9.06251 0,-5.62502 2.06598,-10.41671 6.19793,-14.37506 3.40878,-3.26555 7.55013,-5.1841 12.42407,-5.75564 l 0.002,4.2464 c -1.67303,0.46722 -3.10656,1.24808 -4.30057,2.34259 -2.04862,1.875 -3.07293,4.04514 -3.07293,6.51042 0,1.56251 0.36459,2.95141 1.09375,4.16671 1.00695,1.63192 2.62154,3.2465 4.84377,4.84373 0.36612,0.25707 0.83973,0.5587 1.42082,0.9049 2.00902,1.19694 5.30278,2.92656 9.88129,5.18887 0.59055,0.29031 1.16736,0.57947 1.73043,0.86748 7.31624,3.74225 12.31236,7.28991 14.98836,10.64299 2.84724,3.61111 4.27085,7.74307 4.27085,12.39587 0,5.90279 -2.30903,10.98961 -6.9271,15.26045 -3.41703,3.15815 -7.52882,5.13906 -12.33539,5.94271 z"
           transform="scale(0.26458333)"
           sodipodi:nodetypes="ccscccccscsscccsccccccsccc" />
        <g
           id="g33835"
           transform="translate(-15.616645,-25.502811)">
          <path
             id="path33657"
             style="fill:none;stroke:#000000;stroke-width:1.75748;stroke-miterlimit:4;stroke-dasharray:none;stroke-opacity:1"
             d="m 349.67618,655.62519 c 0,4.18772 -2.58484,7.55906 -5.79561,7.55906 -3.21077,0 -5.79561,-3.37134 -5.79561,-7.55906 V 645.463 617.1288 l 11.59122,6.17191 -10e-6,22.39861 z"
             transform="scale(0.26458333)"
             sodipodi:nodetypes="sssccccs" />
          <path
             id="path33655"
             style="fill:none;stroke:#000000;stroke-width:1.75748;stroke-miterlimit:4;stroke-dasharray:none;stroke-opacity:1"
             d="m 349.67618,643.65048 -10e-6,4.09767"
             transform="scale(0.26458333)" />
        </g>
        <path
           id="path33665"
           style="fill:none;stroke:#000000;stroke-width:0.465;stroke-miterlimit:4;stroke-dasharray:none;stroke-opacity:1"
           d="m 73.835868,132.57443 -1e-6,-5.52943 -10e-7,-1.95597 c 0,-1.108 0.683905,-2 1.533421,-2 v 0 c 0.849517,0 1.533422,0.892 1.533422,2.29971 l -3e-6,2.53786 3e-6,6.24825 z"
           sodipodi:nodetypes="ccssscccc" />
      </g>
      <text
         xml:space="preserve"
         style="font-size:7.05556px;fill:#afafaf;fill-opacity:1;stroke:none;stroke-width:2.5908;stroke-linecap:round;stroke-miterlimit:3"
         x="54.50848"
         y="163.95285"
         id="text2861"><tspan
           sodipodi:role="line"
           id="tspan2859"
           style="font-size:7.05556px;fill:#000000;fill-opacity:1;stroke-width:2.5908"
           x="54.50848"
           y="163.95285">continuation</tspan></text>
      <path
         style="fill:#000000;fill-opacity:1;stroke:#000000;stroke-width:1;stroke-linecap:round;stroke-miterlimit:3;stroke-dasharray:none;stroke-opacity:1;marker-end:url(#TriangleStart)"
         d="m 75.445848,157.20139 v -5.57104"
         id="path3249" />
    </g>
    <g
       id="g3979"
       transform="translate(0.1513994)">
      <path
         id="path43319"
         style="font-weight:bold;font-size:28.2223px;line-height:1.25;font-family:'Times New Roman';-inkscape-font-specification:'Times New Roman,  Bold';stroke-width:0.264583"
         d="m 130.72587,126.46205 -9.87071,0.0114 h -0.0362 l -0.0814,1.94188 h 0.62012 c 0.52365,0 0.93707,0.0917 1.24024,0.27544 0.31236,0.17455 0.51905,0.38125 0.62011,0.62011 0.10108,0.23886 0.15757,0.83621 0.15142,1.79162 l -0.0619,9.61828 c -0.006,0.93705 -0.0503,1.51584 -0.15142,1.73633 -0.12862,0.31236 -0.31253,0.53285 -0.55138,0.66146 -0.33074,0.19289 -0.75471,0.61569 -1.29674,0.61662 l -1.04903,0.003 c -0.99847,-0.0431 -1.43413,-0.54112 -1.74649,-0.82591 -0.41341,-0.37667 -0.94183,-1.29093 -1.58492,-2.74247 l -5.85438,-11.69381 9.66441,-0.0608 0.0768,-1.94188 -10.53837,0.003 -0.262,3.1e-4 c -2.31811,5.41921 -5.02623,11.6047 -7.41704,15.64431 -1.05839,1.65732 -1.05375,1.65929 -2.53329,1.66788 l 0.0142,1.76003 8.36121,-4e-4 -0.0122,-1.91495 c -3.17793,-0.003 -4.37705,-0.0119 -3.36019,-2.03649 1.67336,-3.35516 2.5982,-5.19256 4.21505,-8.82307 1.26633,2.82481 2.87087,6.13326 4.11296,8.72099 1.07739,2.01378 -0.75861,2.05731 -3.41524,2.1372 l 0.0234,1.91632 9.87123,1.3e-4 c 5.82664,-0.004 11.6534,0.002 17.48007,0 l 0.7028,-6.55929 h -0.56483 c -0.43179,1.46991 -0.76654,1.76761 -1.25345,2.52094 -0.47772,0.75333 -1.04748,1.30454 -1.70894,1.65365 -0.66146,0.34909 -1.48828,0.52399 -2.48047,0.52399 h -1.55701 c -0.88195,0 -1.43793,-0.0413 -1.6676,-0.12402 -0.32154,-0.12861 -0.53725,-0.32153 -0.6475,-0.57878 -0.11026,-0.26641 -0.15113,-0.87762 -0.16537,-1.83296 l -0.14986,-10.04923 c -0.014,-0.93697 0.0503,-1.51584 0.15142,-1.73633 0.13782,-0.31236 0.32596,-0.53284 0.56482,-0.66145 0.33073,-0.19289 0.76745,-0.28939 1.30948,-0.28939 h 0.81287 z"
         sodipodi:nodetypes="ccccscsssccccccccccccccccccccccccccsssccssccscc" />
      <text
         xml:space="preserve"
         style="font-size:4.23333px;fill:#afafaf;fill-opacity:1;stroke:none;stroke-width:2.5908;stroke-linecap:round;stroke-miterlimit:3"
         x="95.45742"
         y="117.93888"
         id="text2887"><tspan
           sodipodi:role="line"
           id="tspan2885"
           style="font-size:4.23333px;fill:#000000;fill-opacity:1;stroke-width:2.5908"
           x="95.45742"
           y="117.93888">tree within the letter &quot;A&quot;</tspan></text>
      <path
         style="fill:#000000;fill-opacity:1;stroke:#000000;stroke-width:1;stroke-linecap:round;stroke-miterlimit:3;stroke-dasharray:none;stroke-opacity:1;marker-end:url(#TriangleStart)"
         d="m 119.06035,119.41075 v 4.52487"
         id="path3623" />
      <text
         xml:space="preserve"
         style="font-size:7.05556px;fill:#afafaf;fill-opacity:1;stroke:none;stroke-width:2.5908;stroke-linecap:round;stroke-miterlimit:3"
         x="95.925179"
         y="112.29648"
         id="text3629"><tspan
           sodipodi:role="line"
           id="tspan3627"
           style="font-size:7.05556px;fill:#000000;fill-opacity:1;stroke-width:2.5908"
           x="95.925179"
           y="112.29648">figure/ground</tspan></text>
    </g>
    <g
       id="g1471">
      <g
         id="g577">
        <g
           id="g568">
          <path
             style="font-weight:bold;font-size:28.2223px;line-height:1.25;font-family:'Times New Roman';-inkscape-font-specification:'Times New Roman,  Bold';stroke-width:0.264583"
             d="m 39.237958,137.70743 v 0.51004 h 0.482141 c 0.450159,0 0.831243,0.0869 1.143599,0.26148 0.321543,0.17456 0.533014,0.37225 0.63407,0.59273 0.101057,0.2113 0.151412,0.6846 0.151412,1.41955 v 3.88607 c -0.496095,0.18374 -0.982655,0.3258 -1.460376,0.42685 -0.437191,0.0857 -0.866583,0.13121 -1.287777,0.13694 v 1.0418 c 1.202771,-0.0301 2.366894,-0.16554 3.492294,-0.40669 1.295358,-0.26642 2.540353,-0.66605 3.734655,-1.1989 v -3.88607 c 0,-0.67983 0.04134,-1.10702 0.124024,-1.28157 0.14699,-0.33073 0.353695,-0.56499 0.620117,-0.7028 0.275608,-0.14699 0.75792,-0.24345 1.44694,-0.28939 v -0.51004 z"
             id="path563" />
          <path
             style="font-weight:bold;font-size:28.2223px;line-height:1.25;font-family:'Times New Roman';-inkscape-font-specification:'Times New Roman,  Bold';stroke-width:0.264583"
             d="m 34.727122,126.93082 c -1.493859,0.47169 -2.815235,1.27082 -3.964099,2.39831 -1.975192,1.93844 -2.963127,4.3129 -2.963127,7.12411 0,1.57096 0.321714,2.99034 0.964799,4.25814 0.505282,0.983 1.203313,1.8697 2.094446,2.65978 0.90032,0.78089 1.933845,1.41479 3.100586,1.9017 0.242801,0.0986 0.499136,0.18631 0.767395,0.26458 v -2.15904 c -0.573271,-0.6015 -1.01316,-1.38867 -1.318266,-2.36368 -0.422599,-1.35048 -0.63407,-2.92144 -0.63407,-4.71289 0,-1.4791 0.192925,-2.92127 0.578776,-4.32687 0.297003,-1.08194 0.755409,-1.97795 1.37356,-2.68976 z"
             id="path561" />
          <path
             style="font-weight:bold;font-size:28.2223px;line-height:1.25;font-family:'Times New Roman';-inkscape-font-specification:'Times New Roman,  Bold';stroke-width:0.264583"
             d="m 38.901027,126.43525 v 1.07642 c 1.425741,0.019 2.741545,0.48643 3.947046,1.40404 1.23105,0.93707 2.154332,2.30557 2.769857,4.10621 h 0.510046 v -6.58667 H 45.61793 c -0.183738,0.52365 -0.385678,0.88194 -0.606165,1.07487 -0.220486,0.18373 -0.459517,0.27543 -0.716752,0.27543 -0.165364,0 -0.702797,-0.17013 -1.612304,-0.51005 -0.90032,-0.3491 -1.552244,-0.56006 -1.95647,-0.63355 -0.55693,-0.11001 -1.165364,-0.17903 -1.825212,-0.2067 z"
             id="path29539" />
        </g>
        <text
           xml:space="preserve"
           style="font-size:7.05556px;fill:#afafaf;fill-opacity:1;stroke:none;stroke-width:2.5908;stroke-linecap:round;stroke-miterlimit:3"
           x="26.061535"
           y="163.95285"
           id="text2701"><tspan
             sodipodi:role="line"
             id="tspan2699"
             style="font-size:7.05556px;fill:#000000;fill-opacity:1;stroke-width:2.5908"
             x="26.061535"
             y="163.95285">closure</tspan></text>
        <path
           style="fill:#000000;fill-opacity:1;stroke:#000000;stroke-width:1;stroke-linecap:round;stroke-miterlimit:3;stroke-dasharray:none;stroke-opacity:1;marker-end:url(#TriangleStart)"
           d="m 38.05951,157.20139 v -5.57104"
           id="path3967" />
      </g>
    </g>
    <g
       id="g2453">
      <g
         id="g2085"
         transform="translate(-0.07527167)">
        <text
           xml:space="preserve"
           style="font-size:7.05556px;fill:#afafaf;fill-opacity:1;stroke:none;stroke-width:2.5908;stroke-linecap:round;stroke-miterlimit:3"
           x="41.709103"
           y="117.58814"
           id="text2807"><tspan
             sodipodi:role="line"
             id="tspan2805"
             style="font-size:7.05556px;fill:#000000;fill-opacity:1;stroke-width:2.5908"
             x="41.709103"
             y="117.58814">proximity</tspan></text>
        <path
           style="fill:#000000;fill-opacity:1;stroke:#000000;stroke-width:1;stroke-linecap:round;stroke-miterlimit:3;stroke-dasharray:none;stroke-opacity:1;marker-end:url(#TriangleStart)"
           d="m 57.686406,119.18188 v 5.57104"
           id="path3971" />
      </g>
      <g
         id="g2080"
         transform="translate(45.591669,2.053435)">
        <path
           id="path960"
           style="font-weight:bold;font-size:28.2223px;line-height:1.25;font-family:'Times New Roman';-inkscape-font-specification:'Times New Roman,  Bold';stroke:none;stroke-width:0.465;stroke-miterlimit:4;stroke-dasharray:none"
           d="m 7.6641743,126.34791 v 1.54668 h 1.5409912 v -1.54668 z" />
        <path
           id="path962"
           style="font-weight:bold;font-size:28.2223px;line-height:1.25;font-family:'Times New Roman';-inkscape-font-specification:'Times New Roman,  Bold';stroke:none;stroke-width:0.465;stroke-miterlimit:4;stroke-dasharray:none"
           d="m 6.4022359,126.34791 c 0.044905,0.28512 0.066663,0.66634 0.066663,1.40974 v 0.13694 h 0.7301879 v -1.54668 z" />
        <path
           id="path964"
           style="font-weight:bold;font-size:28.2223px;line-height:1.25;font-family:'Times New Roman';-inkscape-font-specification:'Times New Roman,  Bold';stroke:none;stroke-width:0.465;stroke-miterlimit:4;stroke-dasharray:none"
           d="m 7.6641743,128.35916 v 1.54926 h 1.5409912 v -1.54926 z" />
        <path
           id="path966"
           style="font-weight:bold;font-size:28.2223px;line-height:1.25;font-family:'Times New Roman';-inkscape-font-specification:'Times New Roman,  Bold';stroke:none;stroke-width:0.465;stroke-miterlimit:4;stroke-dasharray:none"
           d="m 6.4688985,128.35916 v 1.54926 h 0.7301879 v -1.54926 z" />
        <path
           id="path968"
           style="font-weight:bold;font-size:28.2223px;line-height:1.25;font-family:'Times New Roman';-inkscape-font-specification:'Times New Roman,  Bold';stroke:none;stroke-width:0.465;stroke-miterlimit:4;stroke-dasharray:none"
           d="m 7.6641743,130.37299 v 1.54667 h 1.5409912 v -1.54667 z" />
        <path
           id="path970"
           style="font-weight:bold;font-size:28.2223px;line-height:1.25;font-family:'Times New Roman';-inkscape-font-specification:'Times New Roman,  Bold';stroke:none;stroke-width:0.465;stroke-miterlimit:4;stroke-dasharray:none"
           d="m 6.4688985,130.37299 v 1.54667 h 0.7301879 v -1.54667 z" />
        <path
           id="path972"
           style="font-weight:bold;font-size:28.2223px;line-height:1.25;font-family:'Times New Roman';-inkscape-font-specification:'Times New Roman,  Bold';stroke:none;stroke-width:0.465;stroke-miterlimit:4;stroke-dasharray:none"
           d="m 7.6641743,132.38475 v 1.54668 h 1.5409912 v -1.54668 z" />
        <path
           id="path974"
           style="font-weight:bold;font-size:28.2223px;line-height:1.25;font-family:'Times New Roman';-inkscape-font-specification:'Times New Roman,  Bold';stroke:none;stroke-width:0.465;stroke-miterlimit:4;stroke-dasharray:none"
           d="m 6.4688985,132.38475 v 1.54668 h 0.7301879 v -1.54668 z" />
        <path
           id="path976"
           style="font-weight:bold;font-size:28.2223px;line-height:1.25;font-family:'Times New Roman';-inkscape-font-specification:'Times New Roman,  Bold';stroke:none;stroke-width:0.465;stroke-miterlimit:4;stroke-dasharray:none"
           d="m 7.6641743,134.39652 v 1.54667 h 1.5409912 v -1.54667 z" />
        <path
           id="path978"
           style="font-weight:bold;font-size:28.2223px;line-height:1.25;font-family:'Times New Roman';-inkscape-font-specification:'Times New Roman,  Bold';stroke:none;stroke-width:0.465;stroke-miterlimit:4;stroke-dasharray:none"
           d="m 6.4688985,134.39652 v 1.54667 h 0.7301879 v -1.54667 z" />
        <path
           id="path980"
           style="font-weight:bold;font-size:28.2223px;line-height:1.25;font-family:'Times New Roman';-inkscape-font-specification:'Times New Roman,  Bold';stroke:none;stroke-width:0.465;stroke-miterlimit:4;stroke-dasharray:none"
           d="m 7.6641743,136.41035 v 1.54667 h 1.5409912 v -1.54667 z" />
        <path
           id="path982"
           style="font-weight:bold;font-size:28.2223px;line-height:1.25;font-family:'Times New Roman';-inkscape-font-specification:'Times New Roman,  Bold';stroke:none;stroke-width:0.465;stroke-miterlimit:4;stroke-dasharray:none"
           d="m 6.4688985,136.41035 v 1.54667 h 0.7301879 v -1.54667 z" />
        <path
           id="path984"
           style="font-weight:bold;font-size:28.2223px;line-height:1.25;font-family:'Times New Roman';-inkscape-font-specification:'Times New Roman,  Bold';stroke:none;stroke-width:0.465;stroke-miterlimit:4;stroke-dasharray:none"
           d="m 7.6641743,138.42211 v 1.26142 h 1.5409912 v -1.26142 z" />
        <path
           id="path986"
           style="font-weight:bold;font-size:28.2223px;line-height:1.25;font-family:'Times New Roman';-inkscape-font-specification:'Times New Roman,  Bold';stroke:none;stroke-width:0.465;stroke-miterlimit:4;stroke-dasharray:none"
           d="m 6.4688985,138.42211 v 1.26142 h 0.7301879 v -1.26142 z" />
        <path
           id="path988"
           style="font-weight:bold;font-size:28.2223px;line-height:1.25;font-family:'Times New Roman';-inkscape-font-specification:'Times New Roman,  Bold';stroke:none;stroke-width:0.465;stroke-miterlimit:4;stroke-dasharray:none"
           d="m 7.6641743,140.14862 v 1.54668 h 1.5409912 v -1.54668 z" />
        <path
           id="path990"
           style="font-weight:bold;font-size:28.2223px;line-height:1.25;font-family:'Times New Roman';-inkscape-font-specification:'Times New Roman,  Bold';stroke:none;stroke-width:0.465;stroke-miterlimit:4;stroke-dasharray:none"
           d="m 6.4647643,140.14862 c -0.00196,0.41914 -0.011062,0.78346 -0.03514,1.05833 -0.019005,0.21696 -0.058268,0.34817 -0.097669,0.48835 h 0.8671305 v -1.54668 z" />
        <path
           id="path992"
           style="font-weight:bold;font-size:28.2223px;line-height:1.25;font-family:'Times New Roman';-inkscape-font-specification:'Times New Roman,  Bold';stroke:none;stroke-width:0.465;stroke-miterlimit:4;stroke-dasharray:none"
           d="m 7.6641743,142.16038 v 0.85318 h 1.5409912 v -0.85318 z" />
        <path
           id="path994"
           style="font-weight:bold;font-size:28.2223px;line-height:1.25;font-family:'Times New Roman';-inkscape-font-specification:'Times New Roman,  Bold';stroke:none;stroke-width:0.465;stroke-miterlimit:4;stroke-dasharray:none"
           d="m 17.230515,141.59969 c -0.06848,0.0375 -0.147971,0.0608 -0.218591,0.0956 h 0.218591 z" />
        <path
           id="path996"
           style="font-weight:bold;font-size:28.2223px;line-height:1.25;font-family:'Times New Roman';-inkscape-font-specification:'Times New Roman,  Bold';stroke:none;stroke-width:0.465;stroke-miterlimit:4;stroke-dasharray:none"
           d="m 15.941188,142.16038 c -0.08231,0.0225 -0.167104,0.0406 -0.251664,0.0605 v 0.79272 h 1.540991 v -0.85318 z" />
        <path
           id="path998"
           style="font-weight:bold;font-size:28.2223px;line-height:1.25;font-family:'Times New Roman';-inkscape-font-specification:'Times New Roman,  Bold';stroke:none;stroke-width:0.465;stroke-miterlimit:4;stroke-dasharray:none"
           d="m 15.222886,142.29319 c -0.486047,0.0834 -0.990216,0.14325 -1.540991,0.14625 v 0.57412 h 1.540991 z" />
        <path
           id="path1000"
           style="font-weight:bold;font-size:28.2223px;line-height:1.25;font-family:'Times New Roman';-inkscape-font-specification:'Times New Roman,  Bold';stroke:none;stroke-width:0.465;stroke-miterlimit:4;stroke-dasharray:none"
           d="m 11.675816,142.30869 v 0.70487 h 1.540991 v -0.56844 h -0.711068 c -0.347398,0 -0.583196,-0.0705 -0.829923,-0.13643 z" />
        <path
           id="path1002"
           style="font-weight:bold;font-size:28.2223px;line-height:1.25;font-family:'Times New Roman';-inkscape-font-specification:'Times New Roman,  Bold';stroke:none;stroke-width:0.465;stroke-miterlimit:4;stroke-dasharray:none"
           d="m 9.6697367,142.16038 v 0.85318 h 1.5409913 v -0.83199 c -0.01067,-0.007 -0.01883,-0.0142 -0.02894,-0.0212 z" />
        <path
           id="path1004"
           style="font-weight:bold;font-size:28.2223px;line-height:1.25;font-family:'Times New Roman';-inkscape-font-specification:'Times New Roman,  Bold';stroke:none;stroke-width:0.465;stroke-miterlimit:4;stroke-dasharray:none"
           d="m 9.6697367,140.14862 v 1.54668 h 1.1115603 c -0.04116,-0.0656 -0.115774,-0.10909 -0.144694,-0.18139 l -0.0016,-0.004 -0.0021,-0.004 c -0.08957,-0.24884 -0.102948,-0.74071 -0.115238,-1.35702 z" />
        <path
           id="path1006"
           style="font-weight:bold;font-size:28.2223px;line-height:1.25;font-family:'Times New Roman';-inkscape-font-specification:'Times New Roman,  Bold';stroke:none;stroke-width:0.465;stroke-miterlimit:4;stroke-dasharray:none"
           d="m 9.6697367,138.42211 v 1.26142 h 0.8263063 c -2.18e-4,-0.0486 0,-0.094 0,-0.14469 v -1.11673 z" />
        <path
           id="path1008"
           style="font-weight:bold;font-size:28.2223px;line-height:1.25;font-family:'Times New Roman';-inkscape-font-specification:'Times New Roman,  Bold';stroke:none;stroke-width:0.465;stroke-miterlimit:4;stroke-dasharray:none"
           d="m 9.6697367,136.41035 v 1.54667 h 0.8263063 v -1.54667 z" />
        <path
           id="path1010"
           style="font-weight:bold;font-size:28.2223px;line-height:1.25;font-family:'Times New Roman';-inkscape-font-specification:'Times New Roman,  Bold';stroke:none;stroke-width:0.465;stroke-miterlimit:4;stroke-dasharray:none"
           d="m 9.6697367,134.39652 v 1.54667 h 0.8263063 v -1.54667 z" />
        <path
           id="path1012"
           style="font-weight:bold;font-size:28.2223px;line-height:1.25;font-family:'Times New Roman';-inkscape-font-specification:'Times New Roman,  Bold';stroke:none;stroke-width:0.465;stroke-miterlimit:4;stroke-dasharray:none"
           d="m 12.748102,134.39652 c 0.03455,0.0156 0.09205,0.0142 0.125057,0.031 0.125512,0.0617 0.228102,0.18322 0.343648,0.27182 v -0.30282 z" />
        <path
           id="path1016"
           style="font-weight:bold;font-size:28.2223px;line-height:1.25;font-family:'Times New Roman';-inkscape-font-specification:'Times New Roman,  Bold';stroke:none;stroke-width:0.465;stroke-miterlimit:4;stroke-dasharray:none"
           d="m 14.386761,136.41035 c 0.184975,0.45899 0.335039,0.96364 0.431499,1.54667 h 0.170015 v -1.54667 z" />
        <path
           id="path1018"
           style="font-weight:bold;font-size:28.2223px;line-height:1.25;font-family:'Times New Roman';-inkscape-font-specification:'Times New Roman,  Bold';stroke:none;stroke-width:0.465;stroke-miterlimit:4;stroke-dasharray:none"
           d="m 13.681895,134.39652 -5.17e-4,0.71106 c 0.185744,0.22467 0.360802,0.47756 0.517798,0.7829 l 0.0021,0.002 c 0.0088,0.0168 0.01672,0.0337 0.02532,0.0506 h 0.761711 v -1.54667 z" />
        <path
           id="path1020"
           style="font-weight:bold;font-size:28.2223px;line-height:1.25;font-family:'Times New Roman';-inkscape-font-specification:'Times New Roman,  Bold';stroke:none;stroke-width:0.465;stroke-miterlimit:4;stroke-dasharray:none"
           d="m 14.894741,129.06454 c -0.03499,0.29678 -0.07929,0.5762 -0.131258,0.84388 h 0.224792 v -0.84388 z" />
        <path
           id="path1022"
           style="font-weight:bold;font-size:28.2223px;line-height:1.25;font-family:'Times New Roman';-inkscape-font-specification:'Times New Roman,  Bold';stroke:none;stroke-width:0.465;stroke-miterlimit:4;stroke-dasharray:none"
           d="m 14.644627,130.37299 c -0.153009,0.61062 -0.375575,1.10832 -0.636654,1.54667 h 0.980302 v -1.54667 z" />
        <path
           id="path1024"
           style="font-weight:bold;font-size:28.2223px;line-height:1.25;font-family:'Times New Roman';-inkscape-font-specification:'Times New Roman,  Bold';stroke:none;stroke-width:0.465;stroke-miterlimit:4;stroke-dasharray:none"
           d="m 13.763544,132.38475 c -0.02658,0.0331 -0.05352,0.0658 -0.08165,0.0977 v 1.44901 h 1.30638 v -1.54668 z" />
        <path
           id="path1026"
           style="font-weight:bold;font-size:28.2223px;line-height:1.25;font-family:'Times New Roman';-inkscape-font-specification:'Times New Roman,  Bold';stroke:none;stroke-width:0.465;stroke-miterlimit:4;stroke-dasharray:none"
           d="m 13.216807,132.7284 c -0.427688,0.32341 -0.920855,0.56771 -1.540991,0.64441 v 0.55862 h 1.540991 z" />
        <path
           id="path1028"
           style="font-weight:bold;font-size:28.2223px;line-height:1.25;font-family:'Times New Roman';-inkscape-font-specification:'Times New Roman,  Bold';stroke:none;stroke-width:0.465;stroke-miterlimit:4;stroke-dasharray:none"
           d="m 9.6697367,132.38475 v 1.54668 h 1.5409913 v -0.46096 c -0.03755,0.001 -0.07251,0.004 -0.111104,0.004 h -0.603581 v -1.08986 z" />
        <path
           id="path1030"
           style="font-weight:bold;font-size:28.2223px;line-height:1.25;font-family:'Times New Roman';-inkscape-font-specification:'Times New Roman,  Bold';stroke:none;stroke-width:0.465;stroke-miterlimit:4;stroke-dasharray:none"
           d="m 9.6697367,130.37299 v 1.54667 h 0.8263063 v -1.54667 z" />
        <path
           id="path1032"
           style="font-weight:bold;font-size:28.2223px;line-height:1.25;font-family:'Times New Roman';-inkscape-font-specification:'Times New Roman,  Bold';stroke:none;stroke-width:0.465;stroke-miterlimit:4;stroke-dasharray:none"
           d="m 9.6697367,128.35916 v 1.54926 h 0.8263063 v -1.54926 z" />
        <path
           id="path1034"
           style="font-weight:bold;font-size:28.2223px;line-height:1.25;font-family:'Times New Roman';-inkscape-font-specification:'Times New Roman,  Bold';stroke:none;stroke-width:0.465;stroke-miterlimit:4;stroke-dasharray:none"
           d="m 9.6697367,126.34791 v 1.54668 h 0.8263063 v -1.54668 z" />
        <path
           id="path1036"
           style="font-weight:bold;font-size:28.2223px;line-height:1.25;font-family:'Times New Roman';-inkscape-font-specification:'Times New Roman,  Bold';stroke:none;stroke-width:0.465;stroke-miterlimit:4;stroke-dasharray:none"
           d="m 16.890485,126.34791 c 0.115361,0.0785 0.235892,0.15188 0.34003,0.23978 v -0.23978 z" />
        <path
           id="path1038"
           style="font-weight:bold;font-size:28.2223px;line-height:1.25;font-family:'Times New Roman';-inkscape-font-specification:'Times New Roman,  Bold';stroke:none;stroke-width:0.465;stroke-miterlimit:4;stroke-dasharray:none"
           d="m 18.456797,128.35916 c 0.166264,0.43632 0.315883,0.92164 0.4377,1.49448 h 0.117305 v -1.49448 z" />
        <path
           id="path1040"
           style="font-weight:bold;font-size:28.2223px;line-height:1.25;font-family:'Times New Roman';-inkscape-font-specification:'Times New Roman,  Bold';stroke:none;stroke-width:0.465;stroke-miterlimit:4;stroke-dasharray:none"
           d="m 17.695087,126.34791 v 0.59738 c 0.02465,0.0281 0.05028,0.0562 0.07441,0.0858 l 0.0021,0.002 c 0.191773,0.23197 0.354338,0.53437 0.507979,0.86145 h 0.732255 v -1.54668 z" />
        <path
           id="path1042"
           style="font-weight:bold;font-size:28.2223px;line-height:1.25;font-family:'Times New Roman';-inkscape-font-specification:'Times New Roman,  Bold';stroke:none;stroke-width:0.465;stroke-miterlimit:4;stroke-dasharray:none"
           d="m 17.695087,124.79297 v 1.08985 h 1.316715 v -1.08985 z" />
        <path
           id="path1044"
           style="font-weight:bold;font-size:28.2223px;line-height:1.25;font-family:'Times New Roman';-inkscape-font-specification:'Times New Roman,  Bold';stroke:none;stroke-width:0.465;stroke-miterlimit:4;stroke-dasharray:none"
           d="m 15.689524,124.79297 v 0.89452 c 0.179447,0.0585 0.351735,0.12363 0.515731,0.19533 h 1.02526 v -1.08985 z" />
        <path
           id="path1046"
           style="font-weight:bold;font-size:28.2223px;line-height:1.25;font-family:'Times New Roman';-inkscape-font-specification:'Times New Roman,  Bold';stroke:none;stroke-width:0.465;stroke-miterlimit:4;stroke-dasharray:none"
           d="m 13.681895,124.79297 v 0.6444 c 0.650699,0.0256 1.150424,0.0806 1.540991,0.16227 v -0.80667 z" />
        <path
           id="path1048"
           style="font-weight:bold;font-size:28.2223px;line-height:1.25;font-family:'Times New Roman';-inkscape-font-specification:'Times New Roman,  Bold';stroke:none;stroke-width:0.465;stroke-miterlimit:4;stroke-dasharray:none"
           d="m 11.675816,124.79297 v 0.60926 h 0.982369 c 0.200152,0 0.377745,0.004 0.558622,0.008 v -0.61701 z" />
        <path
           id="path1050"
           style="font-weight:bold;font-size:28.2223px;line-height:1.25;font-family:'Times New Roman';-inkscape-font-specification:'Times New Roman,  Bold';stroke:none;stroke-width:0.465;stroke-miterlimit:4;stroke-dasharray:none"
           d="m 9.6697367,124.79297 v 1.08985 h 0.8263063 v -0.48059 h 0.714685 v -0.60926 z" />
        <path
           id="path1052"
           style="font-weight:bold;font-size:28.2223px;line-height:1.25;font-family:'Times New Roman';-inkscape-font-specification:'Times New Roman,  Bold';stroke:none;stroke-width:0.465;stroke-miterlimit:4;stroke-dasharray:none"
           d="m 7.6641743,124.79297 v 1.08985 h 1.5409912 v -1.08985 z" />
        <path
           id="path1056"
           style="font-weight:bold;font-size:28.2223px;line-height:1.25;font-family:'Times New Roman';-inkscape-font-specification:'Times New Roman,  Bold';stroke:none;stroke-width:0.465;stroke-miterlimit:4;stroke-dasharray:none"
           d="m 19.947146,138.42211 c -0.07786,0.19251 -0.15816,0.38165 -0.24598,0.56017 v 0.70125 h 0.322461 l 0.179317,-1.26142 z" />
        <path
           id="path1060"
           style="font-weight:bold;font-size:28.2223px;line-height:1.25;font-family:'Times New Roman';-inkscape-font-specification:'Times New Roman,  Bold';stroke:none;stroke-width:0.465;stroke-miterlimit:4;stroke-dasharray:none"
           d="m 19.701166,140.14862 v 1.54668 h 0.03721 l 0.220658,-1.54668 z" />
        <path
           id="path1062"
           style="font-weight:bold;font-size:28.2223px;line-height:1.25;font-family:'Times New Roman';-inkscape-font-specification:'Times New Roman,  Bold';stroke:none;stroke-width:0.465;stroke-miterlimit:4;stroke-dasharray:none"
           d="m 18.966844,140.14862 c -0.303792,0.39189 -0.63488,0.74712 -1.013892,1.03715 -0.08353,0.0645 -0.171045,0.12081 -0.257865,0.17931 v 0.33022 h 1.540991 v -1.54668 z" />
        <path
           id="path1066"
           style="font-weight:bold;font-size:28.2223px;line-height:1.25;font-family:'Times New Roman';-inkscape-font-specification:'Times New Roman,  Bold';stroke:none;stroke-width:0.465;stroke-miterlimit:4;stroke-dasharray:none"
           d="m 17.695087,142.16038 v 0.85318 h 1.540991 v -0.85318 z" />
        <path
           id="path1068"
           style="font-weight:bold;font-size:28.2223px;line-height:1.25;font-family:'Times New Roman';-inkscape-font-specification:'Times New Roman,  Bold';stroke:none;stroke-width:0.465;stroke-miterlimit:4;stroke-dasharray:none"
           d="m 5.1935241,142.77947 c -0.2955893,0.0949 -0.5895935,0.18913 -0.9689331,0.18913 H 3.8359842 v 0.045 h 1.3575399 z" />
        <path
           id="path1070"
           style="font-weight:bold;font-size:28.2223px;line-height:1.25;font-family:'Times New Roman';-inkscape-font-specification:'Times New Roman,  Bold';stroke:none;stroke-width:0.465;stroke-miterlimit:4;stroke-dasharray:none"
           d="m 6.1076802,142.16038 c -0.1248978,0.19053 -0.2612425,0.37064 -0.449585,0.47646 v 0.37672 h 1.5409912 v -0.85318 z" />
        <path
           id="path1072"
           style="font-weight:bold;font-size:28.2223px;line-height:1.25;font-family:'Times New Roman';-inkscape-font-specification:'Times New Roman,  Bold';stroke:none;stroke-width:0.465;stroke-miterlimit:4;stroke-dasharray:none"
           d="m 3.8359842,124.79297 v 0.045 H 4.224591 c 0.3766065,0 0.6721391,0.0999 0.9689331,0.19895 v -0.24391 z" />
        <path
           id="path1074"
           style="font-weight:bold;font-size:28.2223px;line-height:1.25;font-family:'Times New Roman';-inkscape-font-specification:'Times New Roman,  Bold';stroke:none;stroke-width:0.465;stroke-miterlimit:4;stroke-dasharray:none"
           d="m 5.6580952,124.79297 v 0.39274 c 0.045096,0.0274 0.092535,0.0506 0.1348755,0.0816 l 0.00207,0.002 c 0.2098807,0.14888 0.3358374,0.37806 0.4490682,0.6134 h 0.9549804 v -1.08985 z" />
      </g>
    </g>
    <path
       id="path2145"
       style="font-weight:bold;font-size:28.2223px;line-height:1.25;font-family:'Times New Roman';-inkscape-font-specification:'Times New Roman,  Bold';stroke:#ffffff;stroke-width:1;stroke-dasharray:none;stroke-opacity:1;fill:none"
       d="m 139.47418,125.86617 h -2.23862 v 8.62177 h 0.524 c 0.2113,-1.37803 0.7164,-2.43912 1.51567,-3.18326 0.0619,-0.0579 0.12891,-0.1122 0.19895,-0.16382 z"
       sodipodi:nodetypes="ccccccc" />
    <path
       id="path2147"
       style="font-weight:bold;font-size:28.2223px;line-height:1.25;font-family:'Times New Roman';-inkscape-font-specification:'Times New Roman,  Bold';stroke:#ffffff;stroke-width:1;stroke-dasharray:none;stroke-opacity:1;fill:none"
       d="m 142.551,143.01867 c -0.31703,0.15691 -0.71989,0.23564 -1.20872,0.23564 h -0.62011 v 2.79287 h 1.82883 z"
       sodipodi:nodetypes="cscccc" />
    <path
       id="path2149"
       style="font-weight:bold;font-size:28.2223px;line-height:1.25;font-family:'Times New Roman';-inkscape-font-specification:'Times New Roman,  Bold';stroke:#ffffff;stroke-width:1;stroke-dasharray:none;stroke-opacity:1;fill:none"
       d="m 142.551,125.86617 h -3.07682 v 5.27469 c 0.57443,-0.42331 1.4217,-0.63562 2.54352,-0.63562 h 0.5333 z"
       sodipodi:nodetypes="cccscc" />
    <path
       id="path2151"
       style="font-weight:bold;font-size:28.2223px;line-height:1.25;font-family:'Times New Roman';-inkscape-font-specification:'Times New Roman,  Bold';stroke:#ffffff;stroke-width:1;stroke-dasharray:none;stroke-opacity:1;fill:none"
       d="M 145.62833,125.86617 H 142.551 v 4.63907 h 0.817 v 10.0619 c 0,0.93706 -0.0504,1.51584 -0.15141,1.73632 -0.13781,0.31236 -0.32596,0.53285 -0.56482,0.66146 -0.0325,0.0189 -0.0663,0.0367 -0.10077,0.0538 v 3.02851 h 3.07733 z"
       sodipodi:nodetypes="ccccscccccc" />
    <path
       id="path2153"
       style="font-weight:bold;font-size:28.2223px;line-height:1.25;font-family:'Times New Roman';-inkscape-font-specification:'Times New Roman,  Bold';stroke:#ffffff;stroke-width:1;stroke-dasharray:none;stroke-opacity:1;fill:none"
       d="m 148.70514,143.03572 v 3.01146 h 1.80144 v -2.79287 h -0.62011 c -0.48567,0 -0.87878,-0.0736 -1.18133,-0.21859 z"
       sodipodi:nodetypes="ccccsc" />
    <path
       id="path2155"
       style="font-weight:bold;font-size:28.2223px;line-height:1.25;font-family:'Times New Roman';-inkscape-font-specification:'Times New Roman,  Bold';stroke:#ffffff;stroke-width:1;stroke-dasharray:none;stroke-opacity:1;fill:none"
       d="m 148.70514,125.86617 h -3.07681 v 20.18101 h 3.07681 v -3.01146 c -0.0294,-0.0141 -0.0592,-0.028 -0.0868,-0.0434 -0.30317,-0.18374 -0.50987,-0.39521 -0.62012,-0.63407 -0.10105,-0.23886 -0.15141,-0.83566 -0.15141,-1.7911 v -10.0619 h 0.85835 z"
       sodipodi:nodetypes="cccccccsccc" />
    <path
       id="path2157"
       style="font-weight:bold;font-size:28.2223px;line-height:1.25;font-family:'Times New Roman';-inkscape-font-specification:'Times New Roman,  Bold';stroke:#ffffff;stroke-width:1;stroke-dasharray:none;stroke-opacity:1;fill:none"
       d="m 151.78196,125.86617 h -3.07682 v 4.63907 h 0.5333 c 0.87276,0 1.48386,0.0827 1.83297,0.24805 0.26005,0.1262 0.4967,0.2712 0.71055,0.43408 z"
       sodipodi:nodetypes="cccsccc" />
    <path
       id="path2159"
       style="font-weight:bold;font-size:28.2223px;line-height:1.25;font-family:'Times New Roman';-inkscape-font-specification:'Times New Roman,  Bold';stroke:#ffffff;stroke-width:1;stroke-dasharray:none;stroke-opacity:1;fill:none"
       d="m 151.78196,125.86617 v 5.3212 c 0.29987,0.22841 0.55463,0.4924 0.76378,0.79272 0.35828,0.50528 0.68476,1.34116 0.97875,2.50785 h 0.49609 v -8.62177 z"
       sodipodi:nodetypes="ccccccc" />
    <g
       id="g2374">
      <g
         id="g2332">
        <text
           xml:space="preserve"
           style="font-size:7.05556px;fill:#afafaf;fill-opacity:1;stroke:none;stroke-width:2.5908;stroke-linecap:round;stroke-miterlimit:3"
           x="103.76662"
           y="163.95285"
           id="text2865"><tspan
             sodipodi:role="line"
             id="tspan2863"
             style="font-size:7.05556px;fill:#000000;fill-opacity:1;stroke-width:2.5908"
             x="103.76662"
             y="163.95285">similarity</tspan></text>
        <path
           style="fill:none;fill-opacity:1;stroke:#000000;stroke-width:1;stroke-linecap:round;stroke-linejoin:round;stroke-miterlimit:3;stroke-dasharray:none;stroke-opacity:1;marker-start:url(#marker3265);marker-end:url(#marker3311)"
           d="m 92.651279,151.27199 v 6.045 h 52.900391 l -0.0381,-6.045"
           id="path3261" />
      </g>
      <g
         id="g2309"
         transform="translate(-73.699645,3.7612008)">
        <path
           id="path2187"
           style="font-weight:bold;font-size:28.2223px;line-height:1.25;font-family:'Times New Roman';-inkscape-font-specification:'Times New Roman,  Bold';fill:#000000;stroke:none;stroke-width:1;stroke-dasharray:none;stroke-opacity:1"
           d="m 158.28134,122.6055 v 6.45904 c 0.29216,-0.73016 0.66501,-1.38675 1.19941,-1.88464 0.0132,-0.0124 0.0274,-0.0211 0.0408,-0.0331 v -4.54133 z" />
        <path
           id="path2189"
           style="font-weight:bold;font-size:28.2223px;line-height:1.25;font-family:'Times New Roman';-inkscape-font-specification:'Times New Roman,  Bold';fill:#000000;stroke:none;stroke-width:1;stroke-dasharray:none;stroke-opacity:1"
           d="m 162.59787,139.852 c -0.23683,0.0457 -0.4403,0.14211 -0.709,0.14211 h -0.11937 v 1.79317 h 0.82837 z" />
        <path
           id="path2191"
           style="font-weight:bold;font-size:28.2223px;line-height:1.25;font-family:'Times New Roman';-inkscape-font-specification:'Times New Roman,  Bold';fill:#000000;stroke:none;stroke-width:1;stroke-dasharray:none;stroke-opacity:1"
           d="m 160.52151,122.6055 v 4.16616 c 0.60506,-0.25504 1.19097,-0.5271 2.04329,-0.5271 h 0.0331 v -3.63906 z" />
        <path
           id="path2193"
           style="font-weight:bold;font-size:28.2223px;line-height:1.25;font-family:'Times New Roman';-inkscape-font-specification:'Times New Roman,  Bold';fill:#000000;stroke:none;stroke-width:1;stroke-dasharray:none;stroke-opacity:1"
           d="m 163.59781,122.6055 v 3.63906 h 0.81649 v 10.56215 c 0,0.47748 -0.012,0.86711 -0.0393,1.17977 -0.0271,0.31113 -0.0531,0.53074 -0.15813,0.76171 -0.13528,0.30465 -0.37038,0.52017 -0.61908,0.71107 v 2.32802 h 2.07791 V 122.6055 Z" />
        <path
           id="path2195"
           style="font-weight:bold;font-size:28.2223px;line-height:1.25;font-family:'Times New Roman';-inkscape-font-specification:'Times New Roman,  Bold';fill:#000000;stroke:none;stroke-width:1;stroke-dasharray:none;stroke-opacity:1"
           d="m 169.75196,139.86337 v 1.92391 h 0.80098 v -1.79317 h -0.11937 c -0.26138,0 -0.45368,-0.0897 -0.68161,-0.13074 z" />
        <path
           id="path2197"
           style="font-weight:bold;font-size:28.2223px;line-height:1.25;font-family:'Times New Roman';-inkscape-font-specification:'Times New Roman,  Bold';fill:#000000;stroke:none;stroke-width:1;stroke-dasharray:none;stroke-opacity:1"
           d="m 166.67411,122.6055 v 19.1823 h 2.07791 v -2.28927 c -0.26984,-0.19685 -0.52999,-0.40546 -0.66198,-0.69143 l -0.002,-0.006 -0.004,-0.008 c -0.0971,-0.22959 -0.12328,-0.45848 -0.15038,-0.77928 -0.0271,-0.32081 -0.0408,-0.72067 -0.0408,-1.20716 v -10.56215 h 0.85938 v -3.63906 z" />
        <path
           id="path2199"
           style="font-weight:bold;font-size:28.2223px;line-height:1.25;font-family:'Times New Roman';-inkscape-font-specification:'Times New Roman,  Bold';fill:#000000;stroke:none;stroke-width:1;stroke-dasharray:none;stroke-opacity:1"
           d="m 169.75196,122.6055 v 3.63906 h 0.0331 c 0.90265,0 1.54881,0.0633 2.04328,0.29662 v -3.93568 z" />
        <path
           id="path2201"
           style="font-weight:bold;font-size:28.2223px;line-height:1.25;font-family:'Times New Roman';-inkscape-font-specification:'Times New Roman,  Bold';fill:#000000;stroke:none;stroke-width:1;stroke-dasharray:none;stroke-opacity:1"
           d="m 172.82825,122.6055 v 4.62918 c 0.24566,0.21516 0.48868,0.43328 0.67386,0.69918 0.22739,0.32135 0.38177,0.94396 0.56431,1.42989 v -6.75825 z" />
      </g>
      <g
         id="g2327"
         transform="translate(-20.7538,3.7612008)">
        <path
           id="path2311"
           style="font-weight:bold;font-size:28.2223px;line-height:1.25;font-family:'Times New Roman';-inkscape-font-specification:'Times New Roman,  Bold';fill:#000000;stroke:none;stroke-width:1;stroke-dasharray:none;stroke-opacity:1"
           d="m 158.28134,122.6055 v 6.45904 c 0.29216,-0.73016 0.66501,-1.38675 1.19941,-1.88464 0.0132,-0.0124 0.0274,-0.0211 0.0408,-0.0331 v -4.54133 z" />
        <path
           id="path2313"
           style="font-weight:bold;font-size:28.2223px;line-height:1.25;font-family:'Times New Roman';-inkscape-font-specification:'Times New Roman,  Bold';fill:#000000;stroke:none;stroke-width:1;stroke-dasharray:none;stroke-opacity:1"
           d="m 162.59787,139.852 c -0.23683,0.0457 -0.4403,0.14211 -0.709,0.14211 h -0.11937 v 1.79317 h 0.82837 z" />
        <path
           id="path2315"
           style="font-weight:bold;font-size:28.2223px;line-height:1.25;font-family:'Times New Roman';-inkscape-font-specification:'Times New Roman,  Bold';fill:#000000;stroke:none;stroke-width:1;stroke-dasharray:none;stroke-opacity:1"
           d="m 160.52151,122.6055 v 4.16616 c 0.60506,-0.25504 1.19097,-0.5271 2.04329,-0.5271 h 0.0331 v -3.63906 z" />
        <path
           id="path2317"
           style="font-weight:bold;font-size:28.2223px;line-height:1.25;font-family:'Times New Roman';-inkscape-font-specification:'Times New Roman,  Bold';fill:#000000;stroke:none;stroke-width:1;stroke-dasharray:none;stroke-opacity:1"
           d="m 163.59781,122.6055 v 3.63906 h 0.81649 v 10.56215 c 0,0.47748 -0.012,0.86711 -0.0393,1.17977 -0.0271,0.31113 -0.0531,0.53074 -0.15813,0.76171 -0.13528,0.30465 -0.37038,0.52017 -0.61908,0.71107 v 2.32802 h 2.07791 V 122.6055 Z" />
        <path
           id="path2319"
           style="font-weight:bold;font-size:28.2223px;line-height:1.25;font-family:'Times New Roman';-inkscape-font-specification:'Times New Roman,  Bold';fill:#000000;stroke:none;stroke-width:1;stroke-dasharray:none;stroke-opacity:1"
           d="m 169.75196,139.86337 v 1.92391 h 0.80098 v -1.79317 h -0.11937 c -0.26138,0 -0.45368,-0.0897 -0.68161,-0.13074 z" />
        <path
           id="path2321"
           style="font-weight:bold;font-size:28.2223px;line-height:1.25;font-family:'Times New Roman';-inkscape-font-specification:'Times New Roman,  Bold';fill:#000000;stroke:none;stroke-width:1;stroke-dasharray:none;stroke-opacity:1"
           d="m 166.67411,122.6055 v 19.1823 h 2.07791 v -2.28927 c -0.26984,-0.19685 -0.52999,-0.40546 -0.66198,-0.69143 l -0.002,-0.006 -0.004,-0.008 c -0.0971,-0.22959 -0.12328,-0.45848 -0.15038,-0.77928 -0.0271,-0.32081 -0.0408,-0.72067 -0.0408,-1.20716 v -10.56215 h 0.85938 v -3.63906 z" />
        <path
           id="path2323"
           style="font-weight:bold;font-size:28.2223px;line-height:1.25;font-family:'Times New Roman';-inkscape-font-specification:'Times New Roman,  Bold';fill:#000000;stroke:none;stroke-width:1;stroke-dasharray:none;stroke-opacity:1"
           d="m 169.75196,122.6055 v 3.63906 h 0.0331 c 0.90265,0 1.54881,0.0633 2.04328,0.29662 v -3.93568 z" />
        <path
           id="path2325"
           style="font-weight:bold;font-size:28.2223px;line-height:1.25;font-family:'Times New Roman';-inkscape-font-specification:'Times New Roman,  Bold';fill:#000000;stroke:none;stroke-width:1;stroke-dasharray:none;stroke-opacity:1"
           d="m 172.82825,122.6055 v 4.62918 c 0.24566,0.21516 0.48868,0.43328 0.67386,0.69918 0.22739,0.32135 0.38177,0.94396 0.56431,1.42989 v -6.75825 z" />
      </g>
    </g>
  </g>
</svg>
