<?xml version="1.0" encoding="UTF-8" standalone="no"?>
<!-- Created with Inkscape (http://www.inkscape.org/) -->

<svg
   width="128.07098mm"
   height="58.747211mm"
   viewBox="0 0 128.07099 58.747211"
   version="1.1"
   id="svg5"
   inkscape:version="1.2.2 (b0a8486541, 2022-12-01)"
   sodipodi:docname="gestalt.svg"
   xmlns:inkscape="http://www.inkscape.org/namespaces/inkscape"
   xmlns:sodipodi="http://sodipodi.sourceforge.net/DTD/sodipodi-0.dtd"
   xmlns="http://www.w3.org/2000/svg"
   xmlns:svg="http://www.w3.org/2000/svg">
  <sodipodi:namedview
     id="namedview7"
     pagecolor="#ffffff"
     bordercolor="#666666"
     borderopacity="1.0"
     inkscape:pageshadow="2"
     inkscape:pageopacity="0.0"
     inkscape:pagecheckerboard="0"
     inkscape:document-units="mm"
     showgrid="false"
     inkscape:zoom="2.8284271"
     inkscape:cx="363.62967"
     inkscape:cy="8.8388348"
     inkscape:window-width="3776"
     inkscape:window-height="2111"
     inkscape:window-x="64"
     inkscape:window-y="0"
     inkscape:window-maximized="1"
     inkscape:current-layer="layer1"
     inkscape:showpageshadow="2"
     inkscape:deskcolor="#d1d1d1" />
  <defs
     id="defs2">
    <marker
       style="overflow:visible"
       id="marker3311"
       refX="0"
       refY="0"
       orient="auto-start-reverse"
       inkscape:stockid="TriangleStart"
       markerWidth="1.73"
       markerHeight="2"
       viewBox="0 0 5.3244081 6.1553851"
       inkscape:isstock="true"
       inkscape:collect="always"
       preserveAspectRatio="xMidYMid">
      <path
         transform="scale(0.5)"
         style="fill:context-stroke;fill-rule:evenodd;stroke:context-stroke;stroke-width:1pt"
         d="M 5.77,0 -2.88,5 V -5 Z"
         id="path3309" />
    </marker>
    <marker
       style="overflow:visible"
       id="marker3265"
       refX="0"
       refY="0"
       orient="auto-start-reverse"
       inkscape:stockid="TriangleStart"
       markerWidth="1.73"
       markerHeight="2"
       viewBox="0 0 5.3244081 6.1553851"
       inkscape:isstock="true"
       inkscape:collect="always"
       preserveAspectRatio="xMidYMid">
      <path
         transform="scale(0.5)"
         style="fill:context-stroke;fill-rule:evenodd;stroke:context-stroke;stroke-width:1pt"
         d="M 5.77,0 -2.88,5 V -5 Z"
         id="path3263" />
    </marker>
    <marker
       style="overflow:visible"
       id="TriangleStart"
       refX="0"
       refY="0"
       orient="auto-start-reverse"
       inkscape:stockid="TriangleStart"
       markerWidth="1.73"
       markerHeight="2"
       viewBox="0 0 5.3244081 6.1553851"
       inkscape:isstock="true"
       inkscape:collect="always"
       preserveAspectRatio="xMidYMid">
      <path
         transform="scale(0.5)"
         style="fill:context-stroke;fill-rule:evenodd;stroke:context-stroke;stroke-width:1pt"
         d="M 5.77,0 -2.88,5 V -5 Z"
         id="path135" />
    </marker>
  </defs>
  <g
     inkscape:label="Layer 1"
     inkscape:groupmode="layer"
     id="layer1"
     transform="translate(-26.449591,-106.89897)">
    <g
       id="g4027">
      <g
         id="g4022">
        <text
           xml:space="preserve"
           style="font-style:normal;font-weight:normal;font-size:10.5833px;line-height:1.25;font-family:sans-serif;fill:#000000;fill-opacity:1;stroke:none;stroke-width:0.264583"
           x="34.081207"
           y="159.26855"
           id="text4018"><tspan
             sodipodi:role="line"
             id="tspan4016"
             style="stroke-width:0.264583"
             x="34.081207"
             y="159.26855" /></text>
      </g>
    </g>
    <g
       id="g1461">
      <g
         id="g38381">
        <path
           id="path33358"
           style="font-weight:bold;font-size:28.2223px;line-height:1.25;font-family:'Times New Roman';-inkscape-font-specification:'Times New Roman,  Bold';fill:#000000;stroke:#000000;stroke-width:0.999999"
           d="m 290.64811,479.22726 c 1.24856,0.44059 2.65352,1.04539 4.21489,1.81442 2.36111,1.1111 4.01042,1.66665 4.94793,1.66665 0.90278,0 1.61458,-0.27777 2.13542,-0.83331 0.52083,-0.55556 1.00695,-1.89238 1.45834,-4.01045 h 1.5625 v 0 l 0.57292,23.54173 h -2.13542 c -1.00695,-5.90279 -3.4896,-10.64238 -7.44794,-14.21877 -1.70568,-1.56983 -3.4737,-2.79844 -5.30406,-3.68583"
           transform="scale(0.26458333)" />
        <path
           id="path33372"
           style="font-weight:bold;font-size:28.2223px;line-height:1.25;font-family:'Times New Roman';-inkscape-font-specification:'Times New Roman,  Bold';fill:#000000;stroke:#000000;stroke-width:0.999999"
           d="m 279.06392,551.06577 c -1.95888,-0.45814 -4.40088,-1.29945 -7.32599,-2.52392 -1.66667,-0.69443 -3.0382,-1.04164 -4.11459,-1.04164 -0.90278,0 -1.85765,0.34721 -2.86459,1.04164 -1.00695,0.69445 -1.82292,1.75348 -2.44793,3.1771 h -1.92708 V 525.0522 h 1.92708 c 1.52779,7.50004 4.46182,13.22922 8.80211,17.18755 2.53795,2.27609 5.18689,3.89201 7.94684,4.84774"
           transform="scale(0.26458333)" />
        <path
           id="path33376"
           style="font-weight:bold;font-size:28.2223px;line-height:1.25;font-family:'Times New Roman';-inkscape-font-specification:'Times New Roman,  Bold';fill:#000000;stroke:#000000;stroke-width:0.999999"
           d="m 290.65405,547.26335 c 1.46481,-0.52859 2.74627,-1.30033 3.84436,-2.31523 2.3264,-2.11807 3.4896,-4.58336 3.4896,-7.39586 0,-1.66667 -0.45139,-3.28126 -1.35417,-4.84376 -0.86806,-1.56251 -2.20487,-3.03821 -4.01043,-4.42711 -0.53175,-0.41927 -1.18395,-0.87467 -1.95662,-1.3662 -1.85096,-1.1775 -4.39321,-2.56238 -7.62674,-4.15464 -1.41968,-0.69832 -2.75116,-1.37376 -3.99445,-2.02629 -4.38225,-2.30001 -7.66884,-4.31556 -9.85976,-6.04666 -2.8125,-2.22224 -4.98265,-4.70489 -6.51043,-7.44794 -1.49306,-2.74306 -2.23959,-5.76389 -2.23959,-9.06251 0,-5.62502 2.06598,-10.41671 6.19793,-14.37506 3.40878,-3.26555 7.55013,-5.1841 12.42407,-5.75564 l 0.002,4.2464 c -1.67303,0.46722 -3.10656,1.24808 -4.30057,2.34259 -2.04862,1.875 -3.07293,4.04514 -3.07293,6.51042 0,1.56251 0.36459,2.95141 1.09375,4.16671 1.00695,1.63192 2.62154,3.2465 4.84377,4.84373 0.36612,0.25707 0.83973,0.5587 1.42082,0.9049 2.00902,1.19694 5.30278,2.92656 9.88129,5.18887 0.59055,0.29031 1.16736,0.57947 1.73043,0.86748 7.31624,3.74225 12.31236,7.28991 14.98836,10.64299 2.84724,3.61111 4.27085,7.74307 4.27085,12.39587 0,5.90279 -2.30903,10.98961 -6.9271,15.26045 -3.41703,3.15815 -7.52882,5.13906 -12.33539,5.94271 z"
           transform="scale(0.26458333)"
           sodipodi:nodetypes="ccscccccscsscccsccccccsccc" />
        <g
           id="g33835"
           transform="translate(-15.616645,-25.502811)">
          <path
             id="path33657"
             style="fill:none;stroke:#000000;stroke-width:1.75748;stroke-miterlimit:4;stroke-dasharray:none;stroke-opacity:1"
             d="m 349.67618,655.62519 c 0,4.18772 -2.58484,7.55906 -5.79561,7.55906 -3.21077,0 -5.79561,-3.37134 -5.79561,-7.55906 V 645.463 617.1288 l 11.59122,6.17191 -10e-6,22.39861 z"
             transform="scale(0.26458333)"
             sodipodi:nodetypes="sssccccs" />
          <path
             id="path33655"
             style="fill:none;stroke:#000000;stroke-width:1.75748;stroke-miterlimit:4;stroke-dasharray:none;stroke-opacity:1"
             d="m 349.67618,643.65048 -10e-6,4.09767"
             transform="scale(0.26458333)" />
        </g>
        <path
           id="path33665"
           style="fill:none;stroke:#000000;stroke-width:0.465;stroke-miterlimit:4;stroke-dasharray:none;stroke-opacity:1"
           d="m 73.835868,132.57443 -1e-6,-5.52943 -10e-7,-1.95597 c 0,-1.108 0.683905,-2 1.533421,-2 v 0 c 0.849517,0 1.533422,0.892 1.533422,2.29971 l -3e-6,2.53786 3e-6,6.24825 z"
           sodipodi:nodetypes="ccssscccc" />
      </g>
      <text
         xml:space="preserve"
         style="font-size:7.05556px;fill:#afafaf;fill-opacity:1;stroke:none;stroke-width:2.5908;stroke-linecap:round;stroke-miterlimit:3"
         x="54.50848"
         y="163.95285"
         id="text2861"><tspan
           sodipodi:role="line"
           id="tspan2859"
           style="font-size:7.05556px;fill:#000000;fill-opacity:1;stroke-width:2.5908"
           x="54.50848"
           y="163.95285">continuation</tspan></text>
      <path
         style="fill:#000000;fill-opacity:1;stroke:#000000;stroke-width:1;stroke-linecap:round;stroke-miterlimit:3;stroke-dasharray:none;stroke-opacity:1;marker-end:url(#TriangleStart)"
         d="m 75.445848,157.20139 v -5.57104"
         id="path3249" />
    </g>
    <g
       id="g3979">
      <path
         id="path43319"
         style="font-weight:bold;font-size:28.2223px;line-height:1.25;font-family:'Times New Roman';-inkscape-font-specification:'Times New Roman,  Bold';stroke-width:0.264583"
         d="m 130.72587,126.46205 -9.87071,0.0114 h -0.0362 l -0.0814,1.94188 h 0.62012 c 0.52365,0 0.93707,0.0917 1.24024,0.27544 0.31236,0.17455 0.51905,0.38125 0.62011,0.62011 0.10108,0.23886 0.15757,0.83621 0.15142,1.79162 l -0.0619,9.61828 c -0.006,0.93705 -0.0503,1.51584 -0.15142,1.73633 -0.12862,0.31236 -0.31253,0.53285 -0.55138,0.66146 -0.33074,0.19289 -0.75471,0.61569 -1.29674,0.61662 l -1.04903,0.003 c -0.99847,-0.0431 -1.43413,-0.54112 -1.74649,-0.82591 -0.41341,-0.37667 -0.94183,-1.29093 -1.58492,-2.74247 l -5.85438,-11.69381 9.66441,-0.0608 0.0768,-1.94188 -10.53837,0.003 -0.262,3.1e-4 c -2.31811,5.41921 -5.02623,11.6047 -7.41704,15.64431 -1.05839,1.65732 -1.05375,1.65929 -2.53329,1.66788 l 0.0142,1.76003 8.36121,-4e-4 -0.0122,-1.91495 c -3.17793,-0.003 -4.37705,-0.0119 -3.36019,-2.03649 1.67336,-3.35516 2.5982,-5.19256 4.21505,-8.82307 1.26633,2.82481 2.87087,6.13326 4.11296,8.72099 1.07739,2.01378 -0.75861,2.05731 -3.41524,2.1372 l 0.0234,1.91632 9.87123,1.3e-4 c 5.82664,-0.004 11.6534,0.002 17.48007,0 l 0.7028,-6.55929 h -0.56483 c -0.43179,1.46991 -0.76654,1.76761 -1.25345,2.52094 -0.47772,0.75333 -1.04748,1.30454 -1.70894,1.65365 -0.66146,0.34909 -1.48828,0.52399 -2.48047,0.52399 h -1.55701 c -0.88195,0 -1.43793,-0.0413 -1.6676,-0.12402 -0.32154,-0.12861 -0.53725,-0.32153 -0.6475,-0.57878 -0.11026,-0.26641 -0.15113,-0.87762 -0.16537,-1.83296 l -0.14986,-10.04923 c -0.014,-0.93697 0.0503,-1.51584 0.15142,-1.73633 0.13782,-0.31236 0.32596,-0.53284 0.56482,-0.66145 0.33073,-0.19289 0.76745,-0.28939 1.30948,-0.28939 h 0.81287 z"
         sodipodi:nodetypes="ccccscsssccccccccccccccccccccccccccsssccssccscc" />
      <text
         xml:space="preserve"
         style="font-size:4.23333px;fill:#afafaf;fill-opacity:1;stroke:none;stroke-width:2.5908;stroke-linecap:round;stroke-miterlimit:3"
         x="95.45742"
         y="117.93888"
         id="text2887"><tspan
           sodipodi:role="line"
           id="tspan2885"
           style="font-size:4.23333px;fill:#000000;fill-opacity:1;stroke-width:2.5908"
           x="95.45742"
           y="117.93888">tree within the letter &quot;A&quot;</tspan></text>
      <path
         style="fill:#000000;fill-opacity:1;stroke:#000000;stroke-width:1;stroke-linecap:round;stroke-miterlimit:3;stroke-dasharray:none;stroke-opacity:1;marker-end:url(#TriangleStart)"
         d="m 119.06035,119.41075 v 4.52487"
         id="path3623" />
      <text
         xml:space="preserve"
         style="font-size:7.05556px;fill:#afafaf;fill-opacity:1;stroke:none;stroke-width:2.5908;stroke-linecap:round;stroke-miterlimit:3"
         x="95.925179"
         y="112.29648"
         id="text3629"><tspan
           sodipodi:role="line"
           id="tspan3627"
           style="font-size:7.05556px;fill:#000000;fill-opacity:1;stroke-width:2.5908"
           x="95.925179"
           y="112.29648">figure/ground</tspan></text>
    </g>
    <g
       id="g1471">
      <g
         id="g577">
        <g
           id="g568">
          <path
             style="font-weight:bold;font-size:28.2223px;line-height:1.25;font-family:'Times New Roman';-inkscape-font-specification:'Times New Roman,  Bold';stroke-width:0.264583"
             d="m 39.237958,137.70743 v 0.51004 h 0.482141 c 0.450159,0 0.831243,0.0869 1.143599,0.26148 0.321543,0.17456 0.533014,0.37225 0.63407,0.59273 0.101057,0.2113 0.151412,0.6846 0.151412,1.41955 v 3.88607 c -0.496095,0.18374 -0.982655,0.3258 -1.460376,0.42685 -0.437191,0.0857 -0.866583,0.13121 -1.287777,0.13694 v 1.0418 c 1.202771,-0.0301 2.366894,-0.16554 3.492294,-0.40669 1.295358,-0.26642 2.540353,-0.66605 3.734655,-1.1989 v -3.88607 c 0,-0.67983 0.04134,-1.10702 0.124024,-1.28157 0.14699,-0.33073 0.353695,-0.56499 0.620117,-0.7028 0.275608,-0.14699 0.75792,-0.24345 1.44694,-0.28939 v -0.51004 z"
             id="path563" />
          <path
             style="font-weight:bold;font-size:28.2223px;line-height:1.25;font-family:'Times New Roman';-inkscape-font-specification:'Times New Roman,  Bold';stroke-width:0.264583"
             d="m 34.727122,126.93082 c -1.493859,0.47169 -2.815235,1.27082 -3.964099,2.39831 -1.975192,1.93844 -2.963127,4.3129 -2.963127,7.12411 0,1.57096 0.321714,2.99034 0.964799,4.25814 0.505282,0.983 1.203313,1.8697 2.094446,2.65978 0.90032,0.78089 1.933845,1.41479 3.100586,1.9017 0.242801,0.0986 0.499136,0.18631 0.767395,0.26458 v -2.15904 c -0.573271,-0.6015 -1.01316,-1.38867 -1.318266,-2.36368 -0.422599,-1.35048 -0.63407,-2.92144 -0.63407,-4.71289 0,-1.4791 0.192925,-2.92127 0.578776,-4.32687 0.297003,-1.08194 0.755409,-1.97795 1.37356,-2.68976 z"
             id="path561" />
          <path
             style="font-weight:bold;font-size:28.2223px;line-height:1.25;font-family:'Times New Roman';-inkscape-font-specification:'Times New Roman,  Bold';stroke-width:0.264583"
             d="m 38.901027,126.43525 v 1.07642 c 1.425741,0.019 2.741545,0.48643 3.947046,1.40404 1.23105,0.93707 2.154332,2.30557 2.769857,4.10621 h 0.510046 v -6.58667 H 45.61793 c -0.183738,0.52365 -0.385678,0.88194 -0.606165,1.07487 -0.220486,0.18373 -0.459517,0.27543 -0.716752,0.27543 -0.165364,0 -0.702797,-0.17013 -1.612304,-0.51005 -0.90032,-0.3491 -1.552244,-0.56006 -1.95647,-0.63355 -0.55693,-0.11001 -1.165364,-0.17903 -1.825212,-0.2067 z"
             id="path29539" />
        </g>
        <text
           xml:space="preserve"
           style="font-size:7.05556px;fill:#afafaf;fill-opacity:1;stroke:none;stroke-width:2.5908;stroke-linecap:round;stroke-miterlimit:3"
           x="26.061535"
           y="163.95285"
           id="text2701"><tspan
             sodipodi:role="line"
             id="tspan2699"
             style="font-size:7.05556px;fill:#000000;fill-opacity:1;stroke-width:2.5908"
             x="26.061535"
             y="163.95285">closure</tspan></text>
        <path
           style="fill:#000000;fill-opacity:1;stroke:#000000;stroke-width:1;stroke-linecap:round;stroke-miterlimit:3;stroke-dasharray:none;stroke-opacity:1;marker-end:url(#TriangleStart)"
           d="m 38.05951,157.20139 v -5.57104"
           id="path3967" />
      </g>
    </g>
    <g
       id="g1448">
      <g
         id="g33128">
        <path
           id="path29541"
           style="font-weight:bold;font-size:28.2223px;line-height:1.25;font-family:'Times New Roman';-inkscape-font-specification:'Times New Roman,  Bold';stroke:#ffffff;stroke-width:0.465;stroke-miterlimit:4;stroke-dasharray:none"
           d="m 53.000899,130.42925 h 2.006594 v -2.01228 h -2.006594 z" />
        <path
           id="path32931"
           style="font-weight:bold;font-size:28.2223px;line-height:1.25;font-family:'Times New Roman';-inkscape-font-specification:'Times New Roman,  Bold';stroke:#ffffff;stroke-width:0.465;stroke-miterlimit:4;stroke-dasharray:none"
           d="m 53.000899,130.42925 v -2.01228 h -1.29191 c 0.0096,0.028 0.01905,0.056 0.02739,0.0853 0.04593,0.19293 0.06925,0.71182 0.06925,1.55701 v 0.37001 z" />
        <path
           id="path32929"
           style="font-weight:bold;font-size:28.2223px;line-height:1.25;font-family:'Times New Roman';-inkscape-font-specification:'Times New Roman,  Bold';stroke:#ffffff;stroke-width:0.465;stroke-miterlimit:4;stroke-dasharray:none"
           d="m 53.000899,132.44153 h 2.006594 v -2.01228 h -2.006594 z" />
        <path
           id="path32927"
           style="font-weight:bold;font-size:28.2223px;line-height:1.25;font-family:'Times New Roman';-inkscape-font-specification:'Times New Roman,  Bold';stroke:#ffffff;stroke-width:0.465;stroke-miterlimit:4;stroke-dasharray:none"
           d="m 53.000899,132.44153 v -2.01228 h -1.195277 v 2.01228 z" />
        <path
           id="path32925"
           style="font-weight:bold;font-size:28.2223px;line-height:1.25;font-family:'Times New Roman';-inkscape-font-specification:'Times New Roman,  Bold';stroke:#ffffff;stroke-width:0.465;stroke-miterlimit:4;stroke-dasharray:none"
           d="m 53.000899,134.45381 h 2.006594 v -2.01228 h -2.006594 z" />
        <path
           id="path32923"
           style="font-weight:bold;font-size:28.2223px;line-height:1.25;font-family:'Times New Roman';-inkscape-font-specification:'Times New Roman,  Bold';stroke:#ffffff;stroke-width:0.465;stroke-miterlimit:4;stroke-dasharray:none"
           d="m 53.000899,134.45381 v -2.01228 h -1.195277 v 2.01228 z" />
        <path
           id="path32921"
           style="font-weight:bold;font-size:28.2223px;line-height:1.25;font-family:'Times New Roman';-inkscape-font-specification:'Times New Roman,  Bold';stroke:#ffffff;stroke-width:0.465;stroke-miterlimit:4;stroke-dasharray:none"
           d="m 53.000899,136.46609 h 2.006594 v -2.01228 h -2.006594 z" />
        <path
           id="path32919"
           style="font-weight:bold;font-size:28.2223px;line-height:1.25;font-family:'Times New Roman';-inkscape-font-specification:'Times New Roman,  Bold';stroke:#ffffff;stroke-width:0.465;stroke-miterlimit:4;stroke-dasharray:none"
           d="m 53.000899,136.46609 v -2.01228 h -1.195277 v 2.01228 z" />
        <path
           id="path32917"
           style="font-weight:bold;font-size:28.2223px;line-height:1.25;font-family:'Times New Roman';-inkscape-font-specification:'Times New Roman,  Bold';stroke:#ffffff;stroke-width:0.465;stroke-miterlimit:4;stroke-dasharray:none"
           d="m 53.000899,138.47837 h 2.006594 v -2.01228 h -2.006594 z" />
        <path
           id="path32915"
           style="font-weight:bold;font-size:28.2223px;line-height:1.25;font-family:'Times New Roman';-inkscape-font-specification:'Times New Roman,  Bold';stroke:#ffffff;stroke-width:0.465;stroke-miterlimit:4;stroke-dasharray:none"
           d="m 53.000899,138.47837 v -2.01228 h -1.195277 v 2.01228 z" />
        <path
           id="path32913"
           style="font-weight:bold;font-size:28.2223px;line-height:1.25;font-family:'Times New Roman';-inkscape-font-specification:'Times New Roman,  Bold';stroke:#ffffff;stroke-width:0.465;stroke-miterlimit:4;stroke-dasharray:none"
           d="m 53.000899,140.49065 h 2.006594 v -2.01228 h -2.006594 z" />
        <path
           id="path32911"
           style="font-weight:bold;font-size:28.2223px;line-height:1.25;font-family:'Times New Roman';-inkscape-font-specification:'Times New Roman,  Bold';stroke:#ffffff;stroke-width:0.465;stroke-miterlimit:4;stroke-dasharray:none"
           d="m 53.000899,140.49065 v -2.01228 h -1.195277 v 2.01228 z" />
        <path
           id="path32909"
           style="font-weight:bold;font-size:28.2223px;line-height:1.25;font-family:'Times New Roman';-inkscape-font-specification:'Times New Roman,  Bold';stroke:#ffffff;stroke-width:0.465;stroke-miterlimit:4;stroke-dasharray:none"
           d="m 53.000899,142.21716 h 2.006594 v -1.72651 h -2.006594 z" />
        <path
           id="path32907"
           style="font-weight:bold;font-size:28.2223px;line-height:1.25;font-family:'Times New Roman';-inkscape-font-specification:'Times New Roman,  Bold';stroke:#ffffff;stroke-width:0.465;stroke-miterlimit:4;stroke-dasharray:none"
           d="m 53.000899,142.21716 v -1.72651 h -1.195277 v 1.72651 z" />
        <path
           id="path32905"
           style="font-weight:bold;font-size:28.2223px;line-height:1.25;font-family:'Times New Roman';-inkscape-font-specification:'Times New Roman,  Bold';stroke:#ffffff;stroke-width:0.465;stroke-miterlimit:4;stroke-dasharray:none"
           d="m 53.000899,144.22944 h 2.006594 v -2.01228 h -2.006594 z" />
        <path
           id="path32903"
           style="font-weight:bold;font-size:28.2223px;line-height:1.25;font-family:'Times New Roman';-inkscape-font-specification:'Times New Roman,  Bold';stroke:#ffffff;stroke-width:0.465;stroke-miterlimit:4;stroke-dasharray:none"
           d="m 53.000899,144.22944 v -2.01228 h -1.195277 v 0.13435 c 0,0.93707 -0.05087,1.51585 -0.151929,1.73633 -0.02053,0.0499 -0.0428,0.0964 -0.06614,0.1416 z" />
        <path
           id="path32901"
           style="font-weight:bold;font-size:28.2223px;line-height:1.25;font-family:'Times New Roman';-inkscape-font-specification:'Times New Roman,  Bold';stroke:#ffffff;stroke-width:0.465;stroke-miterlimit:4;stroke-dasharray:none"
           d="m 55.007493,145.54822 v -1.31878 h -2.006594 v 1.31878 z" />
        <path
           id="path32899"
           style="font-weight:bold;font-size:28.2223px;line-height:1.25;font-family:'Times New Roman';-inkscape-font-specification:'Times New Roman,  Bold';stroke:#ffffff;stroke-width:0.465;stroke-miterlimit:4;stroke-dasharray:none"
           d="m 61.482035,144.22944 h 1.549776 v -0.68213 c -0.458346,0.29487 -0.974931,0.52215 -1.549776,0.68213 z" />
        <path
           id="path32897"
           style="font-weight:bold;font-size:28.2223px;line-height:1.25;font-family:'Times New Roman';-inkscape-font-specification:'Times New Roman,  Bold';stroke:#ffffff;stroke-width:0.465;stroke-miterlimit:4;stroke-dasharray:none"
           d="m 61.025732,144.34003 v 1.20819 h 2.006079 v -1.31878 h -1.549776 c -0.148367,0.0413 -0.300177,0.0783 -0.456303,0.11059 z" />
        <path
           id="path32895"
           style="font-weight:bold;font-size:28.2223px;line-height:1.25;font-family:'Times New Roman';-inkscape-font-specification:'Times New Roman,  Bold';stroke:#ffffff;stroke-width:0.465;stroke-miterlimit:4;stroke-dasharray:none"
           d="m 59.019654,144.51469 v 1.03353 h 2.006078 v -1.20819 c -0.561276,0.11613 -1.172424,0.17466 -1.833996,0.17466 z" />
        <path
           id="path32893"
           style="font-weight:bold;font-size:28.2223px;line-height:1.25;font-family:'Times New Roman';-inkscape-font-specification:'Times New Roman,  Bold';stroke:#ffffff;stroke-width:0.465;stroke-miterlimit:4;stroke-dasharray:none"
           d="m 57.013575,144.34571 v 1.20251 h 2.006079 v -1.03353 h -0.944129 c -0.466942,0 -0.820769,-0.0561 -1.06195,-0.16898 z" />
        <path
           id="path32891"
           style="font-weight:bold;font-size:28.2223px;line-height:1.25;font-family:'Times New Roman';-inkscape-font-specification:'Times New Roman,  Bold';stroke:#ffffff;stroke-width:0.465;stroke-miterlimit:4;stroke-dasharray:none"
           d="m 56.821855,144.22944 h -1.814362 v 1.31878 h 2.006082 v -1.20251 c -0.03404,-0.0159 -0.06606,-0.033 -0.0956,-0.0512 -0.0336,-0.0207 -0.06543,-0.0428 -0.09612,-0.0651 z" />
        <path
           id="path32889"
           style="font-weight:bold;font-size:28.2223px;line-height:1.25;font-family:'Times New Roman';-inkscape-font-specification:'Times New Roman,  Bold';stroke:#ffffff;stroke-width:0.465;stroke-miterlimit:4;stroke-dasharray:none"
           d="m 56.299922,142.21716 h -1.292429 v 2.01228 h 1.814362 c -0.187497,-0.13631 -0.321029,-0.30286 -0.399976,-0.50023 -0.07207,-0.2002 -0.112707,-0.70456 -0.121957,-1.51205 z" />
        <path
           id="path32887"
           style="font-weight:bold;font-size:28.2223px;line-height:1.25;font-family:'Times New Roman';-inkscape-font-specification:'Times New Roman,  Bold';stroke:#ffffff;stroke-width:0.465;stroke-miterlimit:4;stroke-dasharray:none"
           d="m 56.297856,140.49065 h -1.290363 v 1.72651 h 1.292429 c -0.0013,-0.11888 -0.0021,-0.24365 -0.0021,-0.37569 z" />
        <path
           id="path32885"
           style="font-weight:bold;font-size:28.2223px;line-height:1.25;font-family:'Times New Roman';-inkscape-font-specification:'Times New Roman,  Bold';stroke:#ffffff;stroke-width:0.465;stroke-miterlimit:4;stroke-dasharray:none"
           d="m 56.297856,138.47837 h -1.290363 v 2.01228 h 1.290363 z" />
        <path
           id="path32883"
           style="font-weight:bold;font-size:28.2223px;line-height:1.25;font-family:'Times New Roman';-inkscape-font-specification:'Times New Roman,  Bold';stroke:#ffffff;stroke-width:0.465;stroke-miterlimit:4;stroke-dasharray:none"
           d="m 57.013575,136.6082 v -0.14211 h -2.006082 v 2.01228 h 1.290363 v -1.90118 c 0.256736,0 0.494056,0.0112 0.715719,0.031 z" />
        <path
           id="path32881"
           style="font-weight:bold;font-size:28.2223px;line-height:1.25;font-family:'Times New Roman';-inkscape-font-specification:'Times New Roman,  Bold';stroke:#ffffff;stroke-width:0.465;stroke-miterlimit:4;stroke-dasharray:none"
           d="m 59.019654,137.47688 v -1.01079 h -2.006079 v 0.14211 c 0.547719,0.049 0.990399,0.15758 1.323948,0.32762 0.243594,0.11941 0.470818,0.29997 0.682131,0.54106 z" />
        <path
           id="path32879"
           style="font-weight:bold;font-size:28.2223px;line-height:1.25;font-family:'Times New Roman';-inkscape-font-specification:'Times New Roman,  Bold';stroke:#ffffff;stroke-width:0.465;stroke-miterlimit:4;stroke-dasharray:none"
           d="m 60.790086,140.49065 h -0.576191 c 0.01982,0.13908 0.03757,0.281 0.05271,0.42736 h 0.52348 z" />
        <path
           id="path32877"
           style="font-weight:bold;font-size:28.2223px;line-height:1.25;font-family:'Times New Roman';-inkscape-font-specification:'Times New Roman,  Bold';stroke:#ffffff;stroke-width:0.465;stroke-miterlimit:4;stroke-dasharray:none"
           d="m 60.790086,138.47837 h -1.137914 c 0.262189,0.55415 0.449511,1.22483 0.561723,2.01228 h 0.576191 z" />
        <path
           id="path32875"
           style="font-weight:bold;font-size:28.2223px;line-height:1.25;font-family:'Times New Roman';-inkscape-font-specification:'Times New Roman,  Bold';stroke:#ffffff;stroke-width:0.465;stroke-miterlimit:4;stroke-dasharray:none"
           d="m 60.790086,136.46609 h -1.770432 v 1.01079 c 0.195127,0.22262 0.376549,0.49682 0.544152,0.8232 0.03049,0.0579 0.05968,0.11765 0.08837,0.17829 h 1.137914 z" />
        <path
           id="path32873"
           style="font-weight:bold;font-size:28.2223px;line-height:1.25;font-family:'Times New Roman';-inkscape-font-specification:'Times New Roman,  Bold';stroke:#ffffff;stroke-width:0.465;stroke-miterlimit:4;stroke-dasharray:none"
           d="m 60.060932,132.44153 h 0.729154 v -1.30742 h -0.52348 c -0.04797,0.47368 -0.116615,0.90907 -0.205674,1.30742 z" />
        <path
           id="path32871"
           style="font-weight:bold;font-size:28.2223px;line-height:1.25;font-family:'Times New Roman';-inkscape-font-specification:'Times New Roman,  Bold';stroke:#ffffff;stroke-width:0.465;stroke-miterlimit:4;stroke-dasharray:none"
           d="m 59.226875,134.45381 h 1.563211 v -2.01228 h -0.729154 c -0.183849,0.82234 -0.454943,1.48461 -0.813903,1.98592 -0.0065,0.009 -0.01357,0.0174 -0.02016,0.0264 z" />
        <path
           id="path32869"
           style="font-weight:bold;font-size:28.2223px;line-height:1.25;font-family:'Times New Roman';-inkscape-font-specification:'Times New Roman,  Bold';stroke:#ffffff;stroke-width:0.465;stroke-miterlimit:4;stroke-dasharray:none"
           d="m 59.019654,134.70186 v 1.76423 h 1.770432 v -2.01228 h -1.563211 c -0.06457,0.0878 -0.133358,0.17088 -0.207221,0.24805 z" />
        <path
           id="path32867"
           style="font-weight:bold;font-size:28.2223px;line-height:1.25;font-family:'Times New Roman';-inkscape-font-specification:'Times New Roman,  Bold';stroke:#ffffff;stroke-width:0.465;stroke-miterlimit:4;stroke-dasharray:none"
           d="m 57.013575,135.53178 v 0.93431 h 2.006079 v -1.76423 c -0.47561,0.49682 -1.144956,0.7729 -2.006079,0.82992 z" />
        <path
           id="path32865"
           style="font-weight:bold;font-size:28.2223px;line-height:1.25;font-family:'Times New Roman';-inkscape-font-specification:'Times New Roman,  Bold';stroke:#ffffff;stroke-width:0.465;stroke-miterlimit:4;stroke-dasharray:none"
           d="m 56.297856,134.45381 h -1.290363 v 2.01228 h 2.006082 v -0.93431 c -0.111636,0.007 -0.225536,0.0119 -0.343649,0.0119 h -0.37207 z" />
        <path
           id="path32863"
           style="font-weight:bold;font-size:28.2223px;line-height:1.25;font-family:'Times New Roman';-inkscape-font-specification:'Times New Roman,  Bold';stroke:#ffffff;stroke-width:0.465;stroke-miterlimit:4;stroke-dasharray:none"
           d="m 56.297856,132.44153 h -1.290363 v 2.01228 h 1.290363 z" />
        <path
           id="path32861"
           style="font-weight:bold;font-size:28.2223px;line-height:1.25;font-family:'Times New Roman';-inkscape-font-specification:'Times New Roman,  Bold';stroke:#ffffff;stroke-width:0.465;stroke-miterlimit:4;stroke-dasharray:none"
           d="m 56.297856,130.42925 h -1.290363 v 2.01228 h 1.290363 z" />
        <path
           id="path32859"
           style="font-weight:bold;font-size:28.2223px;line-height:1.25;font-family:'Times New Roman';-inkscape-font-specification:'Times New Roman,  Bold';stroke:#ffffff;stroke-width:0.465;stroke-miterlimit:4;stroke-dasharray:none"
           d="m 56.297856,128.41697 h -1.290363 v 2.01228 h 1.290363 z" />
        <path
           id="path32857"
           style="font-weight:bold;font-size:28.2223px;line-height:1.25;font-family:'Times New Roman';-inkscape-font-specification:'Times New Roman,  Bold';stroke:#ffffff;stroke-width:0.465;stroke-miterlimit:4;stroke-dasharray:none"
           d="m 63.031811,129.33215 v -0.91518 H 61.73525 c 0.522411,0.23532 0.95433,0.54063 1.296561,0.91518 z" />
        <path
           id="path32855"
           style="font-weight:bold;font-size:28.2223px;line-height:1.25;font-family:'Times New Roman';-inkscape-font-specification:'Times New Roman,  Bold';stroke:#ffffff;stroke-width:0.465;stroke-miterlimit:4;stroke-dasharray:none"
           d="m 64.814132,130.42925 h -1.096574 c 0.227674,0.52585 0.419087,1.17841 0.57309,1.95905 h 0.523484 z" />
        <path
           id="path32853"
           style="font-weight:bold;font-size:28.2223px;line-height:1.25;font-family:'Times New Roman';-inkscape-font-specification:'Times New Roman,  Bold';stroke:#ffffff;stroke-width:0.465;stroke-miterlimit:4;stroke-dasharray:none"
           d="m 64.814132,128.41697 h -1.782321 v 0.91518 c 0.04423,0.0484 0.08746,0.0976 0.128675,0.14832 0.205451,0.24809 0.390874,0.56492 0.557072,0.94878 h 1.096574 z" />
        <path
           id="path32851"
           style="font-weight:bold;font-size:28.2223px;line-height:1.25;font-family:'Times New Roman';-inkscape-font-specification:'Times New Roman,  Bold';stroke:#ffffff;stroke-width:0.465;stroke-miterlimit:4;stroke-dasharray:none"
           d="m 63.031811,126.86202 v 1.55495 h 1.782321 v -1.55495 z" />
        <path
           id="path32849"
           style="font-weight:bold;font-size:28.2223px;line-height:1.25;font-family:'Times New Roman';-inkscape-font-specification:'Times New Roman,  Bold';stroke:#ffffff;stroke-width:0.465;stroke-miterlimit:4;stroke-dasharray:none"
           d="m 61.025732,126.86202 v 1.29501 c 0.03326,0.009 0.06492,0.0182 0.09508,0.0279 0.217029,0.0678 0.421883,0.14529 0.614434,0.23203 h 1.296561 v -1.55495 z" />
        <path
           id="path32847"
           style="font-weight:bold;font-size:28.2223px;line-height:1.25;font-family:'Times New Roman';-inkscape-font-specification:'Times New Roman,  Bold';stroke:#ffffff;stroke-width:0.465;stroke-miterlimit:4;stroke-dasharray:none"
           d="m 59.019654,126.86202 v 1.08572 c 0.91391,0.0246 1.58597,0.094 2.006078,0.20929 v -1.29501 z" />
        <path
           id="path32845"
           style="font-weight:bold;font-size:28.2223px;line-height:1.25;font-family:'Times New Roman';-inkscape-font-specification:'Times New Roman,  Bold';stroke:#ffffff;stroke-width:0.465;stroke-miterlimit:4;stroke-dasharray:none"
           d="m 57.013575,126.86202 v 1.07487 h 1.21336 c 0.284052,0 0.544957,0.004 0.792719,0.0108 v -1.08572 z" />
        <path
           id="path32843"
           style="font-weight:bold;font-size:28.2223px;line-height:1.25;font-family:'Times New Roman';-inkscape-font-specification:'Times New Roman,  Bold';stroke:#ffffff;stroke-width:0.465;stroke-miterlimit:4;stroke-dasharray:none"
           d="m 55.007493,126.86202 v 1.55495 h 1.290363 v -0.48008 h 0.715719 v -1.07487 z" />
        <path
           id="path32841"
           style="font-weight:bold;font-size:28.2223px;line-height:1.25;font-family:'Times New Roman';-inkscape-font-specification:'Times New Roman,  Bold';stroke:#ffffff;stroke-width:0.465;stroke-miterlimit:4;stroke-dasharray:none"
           d="m 53.000899,126.86202 v 1.55495 h 2.006594 v -1.55495 z" />
        <path
           id="path32839"
           style="font-weight:bold;font-size:28.2223px;line-height:1.25;font-family:'Times New Roman';-inkscape-font-specification:'Times New Roman,  Bold';stroke:#ffffff;stroke-width:0.465;stroke-miterlimit:4;stroke-dasharray:none"
           d="m 65.366553,140.49065 h 0.673343 l 0.124539,-0.8816 h -0.509529 c -0.08571,0.30855 -0.181853,0.60247 -0.288353,0.8816 z" />
        <path
           id="path32837"
           style="font-weight:bold;font-size:28.2223px;line-height:1.25;font-family:'Times New Roman';-inkscape-font-specification:'Times New Roman,  Bold';stroke:#ffffff;stroke-width:0.465;stroke-miterlimit:4;stroke-dasharray:none"
           d="m 65.03789,142.21716 h 0.757576 l 0.24443,-1.72651 h -0.673343 c -0.100121,0.2624 -0.21017,0.51084 -0.328663,0.74724 z" />
        <path
           id="path32835"
           style="font-weight:bold;font-size:28.2223px;line-height:1.25;font-family:'Times New Roman';-inkscape-font-specification:'Times New Roman,  Bold';stroke:#ffffff;stroke-width:0.465;stroke-miterlimit:4;stroke-dasharray:none"
           d="m 65.03789,142.21716 v -0.97927 c -0.178194,0.35551 -0.376598,0.68257 -0.596347,0.97927 z" />
        <path
           id="path32833"
           style="font-weight:bold;font-size:28.2223px;line-height:1.25;font-family:'Times New Roman';-inkscape-font-specification:'Times New Roman,  Bold';stroke:#ffffff;stroke-width:0.465;stroke-miterlimit:4;stroke-dasharray:none"
           d="m 65.03789,144.22944 h 0.472839 l 0.284737,-2.01228 H 65.03789 Z" />
        <path
           id="path32831"
           style="font-weight:bold;font-size:28.2223px;line-height:1.25;font-family:'Times New Roman';-inkscape-font-specification:'Times New Roman,  Bold';stroke:#ffffff;stroke-width:0.465;stroke-miterlimit:4;stroke-dasharray:none"
           d="m 65.03789,144.22944 v -2.01228 h -0.596347 c -0.31173,0.42088 -0.665049,0.78267 -1.0604,1.0852 -0.112146,0.0866 -0.229179,0.16765 -0.349332,0.24495 v 0.68213 z" />
        <path
           id="path32829"
           style="font-weight:bold;font-size:28.2223px;line-height:1.25;font-family:'Times New Roman';-inkscape-font-specification:'Times New Roman,  Bold';stroke:#ffffff;stroke-width:0.465;stroke-miterlimit:4;stroke-dasharray:none"
           d="m 65.03789,145.54822 h 0.286287 l 0.186552,-1.31878 H 65.03789 Z" />
        <path
           id="path32827"
           style="font-weight:bold;font-size:28.2223px;line-height:1.25;font-family:'Times New Roman';-inkscape-font-specification:'Times New Roman,  Bold';stroke:#ffffff;stroke-width:0.465;stroke-miterlimit:4;stroke-dasharray:none"
           d="m 65.03789,145.54822 v -1.31878 h -2.006079 v 1.31878 z" />
        <path
           id="path32825"
           style="font-weight:bold;font-size:28.2223px;line-height:1.25;font-family:'Times New Roman';-inkscape-font-specification:'Times New Roman,  Bold';stroke:#ffffff;stroke-width:0.465;stroke-miterlimit:4;stroke-dasharray:none"
           d="m 50.99482,144.80615 c -0.315926,0.15468 -0.716142,0.23254 -1.201478,0.23254 h -0.620117 v 0.50953 h 1.821595 z" />
        <path
           id="path32823"
           style="font-weight:bold;font-size:28.2223px;line-height:1.25;font-family:'Times New Roman';-inkscape-font-specification:'Times New Roman,  Bold';stroke:#ffffff;stroke-width:0.465;stroke-miterlimit:4;stroke-dasharray:none"
           d="m 50.99482,144.80615 v 0.74207 h 2.006079 v -1.31878 h -1.413351 c -0.122873,0.23783 -0.284002,0.41178 -0.484725,0.51986 -0.03459,0.0202 -0.0711,0.0388 -0.108003,0.0568 z" />
        <path
           id="path32821"
           style="font-weight:bold;font-size:28.2223px;line-height:1.25;font-family:'Times New Roman';-inkscape-font-specification:'Times New Roman,  Bold';stroke:#ffffff;stroke-width:0.465;stroke-miterlimit:4;stroke-dasharray:none"
           d="m 50.99482,126.86202 h -1.821595 v 0.51005 h 0.620117 c 0.481809,0 0.882092,0.0815 1.201478,0.24391 z" />
        <path
           id="path32819"
           style="font-weight:bold;font-size:28.2223px;line-height:1.25;font-family:'Times New Roman';-inkscape-font-specification:'Times New Roman,  Bold';stroke:#ffffff;stroke-width:0.465;stroke-miterlimit:4;stroke-dasharray:none"
           d="m 50.99482,126.86202 v 0.75396 c 0.08255,0.042 0.160327,0.0893 0.232026,0.14211 0.225513,0.1587 0.385718,0.37868 0.482143,0.65888 h 1.29191 v -1.55495 z" />
      </g>
      <text
         xml:space="preserve"
         style="font-size:7.05556px;fill:#afafaf;fill-opacity:1;stroke:none;stroke-width:2.5908;stroke-linecap:round;stroke-miterlimit:3"
         x="41.709103"
         y="117.58814"
         id="text2807"><tspan
           sodipodi:role="line"
           id="tspan2805"
           style="font-size:7.05556px;fill:#000000;fill-opacity:1;stroke-width:2.5908"
           x="41.709103"
           y="117.58814">proximity</tspan></text>
      <path
         style="fill:#000000;fill-opacity:1;stroke:#000000;stroke-width:1;stroke-linecap:round;stroke-miterlimit:3;stroke-dasharray:none;stroke-opacity:1;marker-end:url(#TriangleStart)"
         d="m 57.686406,119.18188 v 5.57104"
         id="path3971" />
    </g>
    <g
       id="g1366">
      <text
         xml:space="preserve"
         style="font-size:7.05556px;fill:#afafaf;fill-opacity:1;stroke:none;stroke-width:2.5908;stroke-linecap:round;stroke-miterlimit:3"
         x="103.76662"
         y="163.95285"
         id="text2865"><tspan
           sodipodi:role="line"
           id="tspan2863"
           style="font-size:7.05556px;fill:#000000;fill-opacity:1;stroke-width:2.5908"
           x="103.76662"
           y="163.95285">similarity</tspan></text>
      <path
         style="fill:none;fill-opacity:1;stroke:#000000;stroke-width:1;stroke-linecap:round;stroke-linejoin:round;stroke-miterlimit:3;stroke-dasharray:none;stroke-opacity:1;marker-start:url(#marker3265);marker-end:url(#marker3311)"
         d="m 92.651279,151.27199 v 6.045 h 52.900391 l -0.0381,-6.045"
         id="path3261" />
      <g
         id="g1342">
        <g
           id="g1304">
          <path
             id="path29545"
             style="font-weight:bold;font-size:28.2223px;line-height:1.25;font-family:'Times New Roman';-inkscape-font-specification:'Times New Roman,  Bold';stroke:#ffffff;stroke-width:1;stroke-dasharray:none;stroke-opacity:1"
             d="m 86.386501,125.86617 h -2.238623 v 8.62177 h 0.523999 c 0.2113,-1.37803 0.716407,-2.43912 1.51567,-3.18326 0.06191,-0.0579 0.12891,-0.1122 0.198954,-0.16382 z"
             sodipodi:nodetypes="ccccccc" />
          <path
             id="path653"
             style="font-weight:bold;font-size:28.2223px;line-height:1.25;font-family:'Times New Roman';-inkscape-font-specification:'Times New Roman,  Bold';stroke:#ffffff;stroke-width:1;stroke-dasharray:none;stroke-opacity:1"
             d="m 89.463316,143.01867 c -0.317026,0.15691 -0.719888,0.23564 -1.208712,0.23564 h -0.620117 v 2.79287 h 1.828829 z"
             sodipodi:nodetypes="cscccc" />
          <path
             id="path707"
             style="font-weight:bold;font-size:28.2223px;line-height:1.25;font-family:'Times New Roman';-inkscape-font-specification:'Times New Roman,  Bold';stroke:#ffffff;stroke-width:1;stroke-dasharray:none;stroke-opacity:1"
             d="m 89.463316,125.86617 h -3.076815 v 5.27469 c 0.57443,-0.42331 1.421695,-0.63562 2.543514,-0.63562 h 0.533301 z"
             sodipodi:nodetypes="cccscc" />
          <path
             id="path705"
             style="font-weight:bold;font-size:28.2223px;line-height:1.25;font-family:'Times New Roman';-inkscape-font-specification:'Times New Roman,  Bold';stroke:#ffffff;stroke-width:1;stroke-dasharray:none;stroke-opacity:1"
             d="m 92.540647,125.86617 h -3.077331 v 4.63907 h 0.817004 v 10.0619 c 0,0.93706 -0.05035,1.51584 -0.151412,1.73632 -0.137804,0.31236 -0.325963,0.53285 -0.564823,0.66146 -0.03246,0.0189 -0.06626,0.0367 -0.100769,0.0538 v 3.02851 h 3.077331 z"
             sodipodi:nodetypes="ccccscccccc" />
          <path
             id="path710"
             style="font-weight:bold;font-size:28.2223px;line-height:1.25;font-family:'Times New Roman';-inkscape-font-specification:'Times New Roman,  Bold';stroke:#ffffff;stroke-width:1;stroke-dasharray:none;stroke-opacity:1"
             d="m 95.617462,143.03572 v 3.01146 h 1.801441 v -2.79287 h -0.620118 c -0.485665,0 -0.87878,-0.0736 -1.181323,-0.21859 z"
             sodipodi:nodetypes="ccccsc" />
          <path
             id="path715"
             style="font-weight:bold;font-size:28.2223px;line-height:1.25;font-family:'Times New Roman';-inkscape-font-specification:'Times New Roman,  Bold';stroke:#ffffff;stroke-width:1;stroke-dasharray:none;stroke-opacity:1"
             d="m 95.617462,125.86617 h -3.076815 v 20.18101 h 3.076815 v -3.01146 c -0.02939,-0.0141 -0.05916,-0.028 -0.08682,-0.0434 -0.303169,-0.18374 -0.509874,-0.39521 -0.620118,-0.63407 -0.101053,-0.23886 -0.151411,-0.83566 -0.151411,-1.7911 v -10.0619 h 0.858345 z"
             sodipodi:nodetypes="cccccccsccc" />
          <path
             id="path713"
             style="font-weight:bold;font-size:28.2223px;line-height:1.25;font-family:'Times New Roman';-inkscape-font-specification:'Times New Roman,  Bold';stroke:#ffffff;stroke-width:1;stroke-dasharray:none;stroke-opacity:1"
             d="m 98.694277,125.86617 h -3.076815 v 4.63907 h 0.533301 c 0.872755,0 1.483859,0.0827 1.832963,0.24805 0.260052,0.1262 0.4967,0.2712 0.710551,0.43408 z"
             sodipodi:nodetypes="cccsccc" />
          <path
             id="path718"
             style="font-weight:bold;font-size:28.2223px;line-height:1.25;font-family:'Times New Roman';-inkscape-font-specification:'Times New Roman,  Bold';stroke:#ffffff;stroke-width:1;stroke-dasharray:none;stroke-opacity:1"
             d="m 98.694277,125.86617 v 5.3212 c 0.299871,0.22841 0.554635,0.4924 0.763778,0.79272 0.358286,0.50528 0.684765,1.34116 0.978755,2.50785 h 0.49609 v -8.62177 z"
             sodipodi:nodetypes="ccccccc" />
        </g>
        <g
           id="g1322"
           transform="translate(53.087681)">
          <path
             id="path1306"
             style="font-weight:bold;font-size:28.2223px;line-height:1.25;font-family:'Times New Roman';-inkscape-font-specification:'Times New Roman,  Bold';stroke:#ffffff;stroke-width:1;stroke-dasharray:none;stroke-opacity:1"
             d="m 86.386501,125.86617 h -2.238623 v 8.62177 h 0.523999 c 0.2113,-1.37803 0.716407,-2.43912 1.51567,-3.18326 0.06191,-0.0579 0.12891,-0.1122 0.198954,-0.16382 z"
             sodipodi:nodetypes="ccccccc" />
          <path
             id="path1308"
             style="font-weight:bold;font-size:28.2223px;line-height:1.25;font-family:'Times New Roman';-inkscape-font-specification:'Times New Roman,  Bold';stroke:#ffffff;stroke-width:1;stroke-dasharray:none;stroke-opacity:1"
             d="m 89.463316,143.01867 c -0.317026,0.15691 -0.719888,0.23564 -1.208712,0.23564 h -0.620117 v 2.79287 h 1.828829 z"
             sodipodi:nodetypes="cscccc" />
          <path
             id="path1310"
             style="font-weight:bold;font-size:28.2223px;line-height:1.25;font-family:'Times New Roman';-inkscape-font-specification:'Times New Roman,  Bold';stroke:#ffffff;stroke-width:1;stroke-dasharray:none;stroke-opacity:1"
             d="m 89.463316,125.86617 h -3.076815 v 5.27469 c 0.57443,-0.42331 1.421695,-0.63562 2.543514,-0.63562 h 0.533301 z"
             sodipodi:nodetypes="cccscc" />
          <path
             id="path1312"
             style="font-weight:bold;font-size:28.2223px;line-height:1.25;font-family:'Times New Roman';-inkscape-font-specification:'Times New Roman,  Bold';stroke:#ffffff;stroke-width:1;stroke-dasharray:none;stroke-opacity:1"
             d="m 92.540647,125.86617 h -3.077331 v 4.63907 h 0.817004 v 10.0619 c 0,0.93706 -0.05035,1.51584 -0.151412,1.73632 -0.137804,0.31236 -0.325963,0.53285 -0.564823,0.66146 -0.03246,0.0189 -0.06626,0.0367 -0.100769,0.0538 v 3.02851 h 3.077331 z"
             sodipodi:nodetypes="ccccscccccc" />
          <path
             id="path1314"
             style="font-weight:bold;font-size:28.2223px;line-height:1.25;font-family:'Times New Roman';-inkscape-font-specification:'Times New Roman,  Bold';stroke:#ffffff;stroke-width:1;stroke-dasharray:none;stroke-opacity:1"
             d="m 95.617462,143.03572 v 3.01146 h 1.801441 v -2.79287 h -0.620118 c -0.485665,0 -0.87878,-0.0736 -1.181323,-0.21859 z"
             sodipodi:nodetypes="ccccsc" />
          <path
             id="path1316"
             style="font-weight:bold;font-size:28.2223px;line-height:1.25;font-family:'Times New Roman';-inkscape-font-specification:'Times New Roman,  Bold';stroke:#ffffff;stroke-width:1;stroke-dasharray:none;stroke-opacity:1"
             d="m 95.617462,125.86617 h -3.076815 v 20.18101 h 3.076815 v -3.01146 c -0.02939,-0.0141 -0.05916,-0.028 -0.08682,-0.0434 -0.303169,-0.18374 -0.509874,-0.39521 -0.620118,-0.63407 -0.101053,-0.23886 -0.151411,-0.83566 -0.151411,-1.7911 v -10.0619 h 0.858345 z"
             sodipodi:nodetypes="cccccccsccc" />
          <path
             id="path1318"
             style="font-weight:bold;font-size:28.2223px;line-height:1.25;font-family:'Times New Roman';-inkscape-font-specification:'Times New Roman,  Bold';stroke:#ffffff;stroke-width:1;stroke-dasharray:none;stroke-opacity:1"
             d="m 98.694277,125.86617 h -3.076815 v 4.63907 h 0.533301 c 0.872755,0 1.483859,0.0827 1.832963,0.24805 0.260052,0.1262 0.4967,0.2712 0.710551,0.43408 z"
             sodipodi:nodetypes="cccsccc" />
          <path
             id="path1320"
             style="font-weight:bold;font-size:28.2223px;line-height:1.25;font-family:'Times New Roman';-inkscape-font-specification:'Times New Roman,  Bold';stroke:#ffffff;stroke-width:1;stroke-dasharray:none;stroke-opacity:1"
             d="m 98.694277,125.86617 v 5.3212 c 0.299871,0.22841 0.554635,0.4924 0.763778,0.79272 0.358286,0.50528 0.684765,1.34116 0.978755,2.50785 h 0.49609 v -8.62177 z"
             sodipodi:nodetypes="ccccccc" />
        </g>
      </g>
    </g>
  </g>
</svg>
